<?xml version="1.0" encoding="utf-8"?>
<!-- Generator: Adobe Illustrator 16.0.2, SVG Export Plug-In . SVG Version: 6.00 Build 0)  -->
<!DOCTYPE svg PUBLIC "-//W3C//DTD SVG 1.1//EN" "http://www.w3.org/Graphics/SVG/1.1/DTD/svg11.dtd">
<svg version="1.1" id="Layer_1" xmlns="http://www.w3.org/2000/svg" xmlns:xlink="http://www.w3.org/1999/xlink" x="0px" y="0px"
	 width="48.762px" height="73.894px" viewBox="0 0 48.762 73.894" enable-background="new 0 0 48.762 73.894" xml:space="preserve">
<path fill-rule="evenodd" clip-rule="evenodd" fill="#1A8C91" d="M10.599,6.412c2.622,0.538,3.815-0.574,4.151-2.571
	c0.374-2.222,1.151-2.95,3.113-1.348c1.871,1.527,3.511,1.1,4.673-0.877c1.16-1.974,2.121-2.293,3.386-0.096
	c1.125,1.953,2.699,2.534,4.637,1.007c1.781-1.402,2.924-1.229,3.23,1.229c0.334,2.674,1.998,3.219,4.311,2.612
	c1.984-0.521,2.566,0.233,2.027,2.108c-0.701,2.443,0.199,3.823,2.717,4.26c1.791,0.312,2.883,1.022,1.322,2.95
	c-1.604,1.982-1.207,3.686,0.947,4.964c1.889,1.121,1.868,2.087-0.034,3.201c-2.204,1.289-2.377,3.028-0.832,4.992
	c0.974,1.237,1.215,2.288-0.755,2.628c-2.824,0.489-4.281,1.697-3.276,4.878c0.628,1.989-0.968,1.951-2.254,1.726
	c-2.331-0.406-3.899,0.063-4.246,2.773c-0.277,2.168-1.454,2.357-3.109,1.092c-1.892-1.445-3.544-1.014-4.7,0.96
	c-1.078,1.839-2.126,2.028-3.257,0.169c-1.309-2.15-2.894-2.614-4.938-1.033c-1.849,1.431-2.643,0.591-2.957-1.347
	c-0.38-2.354-1.821-3.122-4.043-2.634c-1.691,0.373-2.787,0.033-2.385-1.999c0.507-2.565-0.39-4.117-3.048-4.516
	c-1.81-0.272-2.053-1.284-1.051-2.597c1.659-2.175,1.363-3.831-1.006-5.219c-1.644-0.963-1.687-2.009,0.042-3.014
	c2.103-1.224,2.727-2.819,1.144-4.924c-1.288-1.713-0.859-2.788,1.263-3.045c2.213-0.268,3.042-1.531,2.726-3.611
	C8.071,6.99,8.192,5.42,10.599,6.412z"/>
<path fill-rule="evenodd" clip-rule="evenodd" fill="#198C91" d="M13.141,72.395c-1.204-3.655-2.484-7.287-3.583-10.973
	c-0.644-2.161-1.418-2.999-3.51-1.321C4.331,61.478,2.407,62.596,0,64.216c0.622-3.269,1.942-5.491,2.977-7.808
	c2.234-5,4.531-9.973,6.771-14.97c0.419-0.935,0.753-1.903,1.975-1.956c1.441-0.062,1.468,1.188,1.674,2.072
	c0.716,3.074,2.393,3.504,4.902,1.949c0.716-0.443,1.412-1.271,2.313-0.541c0.648,0.523,0.493,1.355,0.306,2.098
	c-2.306,9.111-4.613,18.223-6.92,27.334C13.712,72.395,13.426,72.395,13.141,72.395z"/>
<path fill-rule="evenodd" clip-rule="evenodd" fill="#198C91" d="M48.332,64.084c-2.68-1.773-5.358-3.545-8.361-5.533
	c-1.671,4.979-3.272,9.754-5.146,15.343c-2.532-10.206-4.855-19.602-7.205-28.989c-0.191-0.766-0.392-1.499,0.344-2.02
	c0.771-0.545,1.386,0.016,2.005,0.438c2.616,1.783,4.437,1.289,5.233-1.898c0.209-0.834,0.123-1.854,1.29-1.963
	c1.202-0.111,1.691,0.742,2.13,1.715c3.363,7.469,6.757,14.924,10.141,22.384C48.619,63.734,48.476,63.909,48.332,64.084z"/>
<path fill-rule="evenodd" clip-rule="evenodd" fill="#F8FBFB" d="M24.067,39.603C14.498,39.531,6.791,31.725,6.82,22.135
	c0.03-9.807,7.793-17.302,17.784-17.171c9.466,0.125,17.097,7.739,17.191,17.152C41.889,31.631,33.734,39.676,24.067,39.603z"/>
<path fill-rule="evenodd" clip-rule="evenodd" fill="#218F94" d="M24.196,6.498c8.958-0.048,15.829,6.849,15.81,15.869
	c-0.02,8.609-7.104,15.686-15.738,15.721c-8.514,0.035-15.846-7.154-15.94-15.63C8.23,13.661,15.305,6.546,24.196,6.498z"/>
<path fill-rule="evenodd" clip-rule="evenodd" fill="#FEFFFF" d="M24.35,7.994C32.332,8,38.52,14.203,38.566,22.247
	c0.047,7.824-6.367,14.273-14.255,14.333C16.521,36.64,9.91,30.16,9.841,22.397C9.769,14.355,16.183,7.988,24.35,7.994z"/>
<path fill-rule="evenodd" clip-rule="evenodd" fill="#198C91" d="M18.372,31.367c-0.091-7.098-0.091-7.098-3.62-11.95
	c6-2.188,6-2.188,9.793-7.25c1.344,4.719,4.217,7.305,9.525,6.969c-3.797,3.182-5.713,6.619-3.686,11.69
	C26.14,27.869,22.388,27.592,18.372,31.367z"/>
</svg>
