<?xml version="1.0" encoding="utf-8"?>
<!-- Generator: Adobe Illustrator 16.0.2, SVG Export Plug-In . SVG Version: 6.00 Build 0)  -->
<!DOCTYPE svg PUBLIC "-//W3C//DTD SVG 1.1//EN" "http://www.w3.org/Graphics/SVG/1.1/DTD/svg11.dtd">
<svg version="1.1" id="Layer_1" xmlns="http://www.w3.org/2000/svg" xmlns:xlink="http://www.w3.org/1999/xlink" x="0px" y="0px"
	 width="72.502px" height="67.09px" viewBox="0 0 72.502 67.09" enable-background="new 0 0 72.502 67.09" xml:space="preserve">
<path fill-rule="evenodd" clip-rule="evenodd" fill="#198C91" d="M34.274,67.09c-0.174-5.693,2.027-10.684,4.666-15.504
	c4.35-7.944,10.678-14.396,16.295-21.386c2.368-2.947,4.556-6.039,6.418-9.369c-9.671,10.283-20.83,19.268-27.494,32.779
	c-2.395-6.299-1.513-12.159-0.503-17.971c1.011-5.821,4.185-10.363,9.087-13.605c4.052-2.681,8.317-5.041,12.327-7.781
	C59.992,10.889,63.435,6.491,63.454,0c10.288,14.889,12.153,30.995,3.786,42.988c-3.606,5.168-8.335,8.844-14.104,11.292
	c-3.437,1.458-6.894,2.899-10.21,4.604C39.327,60.734,36.55,63.568,34.274,67.09z"/>
<path fill-rule="evenodd" clip-rule="evenodd" fill="#198C91" d="M6.771,4.116c0.391,5.879,3.803,9.131,7.962,11.819
	c1.466,0.948,2.949,1.892,4.508,2.668c9.876,4.917,12.689,14.726,9.878,25.997c-4.871-9.446-12.484-16.099-19.588-23.262
	c6.347,10.876,17.777,18.749,19.235,32.634c-4.015-5.278-10.149-6.834-15.646-9.513C3.048,39.553-1.944,28.704,0.701,17.847
	C1.857,13.102,3.698,8.665,6.771,4.116z"/>
</svg>
