<?xml version="1.0" encoding="utf-8"?>
<!-- Generator: Adobe Illustrator 16.0.2, SVG Export Plug-In . SVG Version: 6.00 Build 0)  -->
<!DOCTYPE svg PUBLIC "-//W3C//DTD SVG 1.1//EN" "http://www.w3.org/Graphics/SVG/1.1/DTD/svg11.dtd">
<svg version="1.1" id="Layer_1" xmlns="http://www.w3.org/2000/svg" xmlns:xlink="http://www.w3.org/1999/xlink" x="0px" y="0px"
	 width="61.553px" height="71.379px" viewBox="0 0 61.553 71.379" enable-background="new 0 0 61.553 71.379" xml:space="preserve">
<path fill-rule="evenodd" clip-rule="evenodd" fill="#198C91" d="M55.049,62.343c-9.342,8.633-20.283,11.123-32.23,7.285
	C10.851,65.783,2.957,57.265,0.697,44.933C-3.545,21.792,12.253,6.089,30.084,3.823c2.674-0.34,2.678-0.312,4.01-3.823
	c3.775,2.307,6.354,5.828,10.139,8.75c-4.143,2.111-8.311,3.972-12.133,3.689c-1.908-0.142-4.102-1.356-6.452-0.723
	C12.485,15.27,4.041,27.207,4.736,41.317c0.644,13.064,11.07,24.73,24.004,27.04c9.606,1.716,17.989-0.91,25.553-6.763
	C55.025,61.358,55.223,61.663,55.049,62.343z"/>
<path fill-rule="evenodd" clip-rule="evenodd" fill="#1A8D92" d="M24.511,43.345c1.666,0,2.656-0.02,3.645,0.004
	c1.003,0.025,2.204-0.035,1.827,1.527c-0.262,1.088-0.012,2.648-1.936,2.602c-1.989-0.05-3.989,0.109-5.968-0.043
	c-1.245-0.098-3.011,0.849-3.642-0.743c-0.521-1.313,0.723-2.542,1.462-3.659c1.667-2.522,4.209-4.209,6.243-6.379
	c1.053-1.123,2.732-2.537,1.091-4.078c-1.555-1.458-2.183,0.454-2.964,1.49c-0.85,1.127-2.164,0.728-3.041,0.313
	c-1.334-0.63-0.348-1.72,0.034-2.536c1.396-2.984,5.238-4.384,8.275-3.073c2.404,1.037,2.949,4.243,1.346,7.533
	C29.545,39.049,26.681,40.419,24.511,43.345z"/>
<path fill-rule="evenodd" clip-rule="evenodd" fill="#1A8D92" d="M31.838,41.896c0.063-2.561,1.758-3.856,2.938-5.414
	c1.807-2.383,3.768-4.649,5.6-7.014c0.947-1.222,2.242-1.176,3.385-0.818c1.428,0.445,0.393,1.646,0.424,2.531
	c0.111,3.262-2.057,6.262-0.086,9.91c1.055,1.957-2.52,3.918-3.379,6.256c-0.082,0.225-2.488,0.55-2.299-0.699
	c0.623-4.076-2.277-2.521-3.99-2.725C32.906,43.742,31.09,44.128,31.838,41.896z"/>
<path fill-rule="evenodd" clip-rule="evenodd" fill="#2A9498" d="M48.682,30.433c-1.91,0.341-0.25,4.096-2.539,3.198
	c-1.971-0.773,0.131-3.014-0.063-4.625c-0.115-0.965,0.098-2.028,1.354-2.337c0.477,2.125,3.541,1.142,3.908,3.113
	c0.23,1.235,0.494,3.3-1.016,3.62C47.76,33.943,50.139,30.942,48.682,30.433z"/>
<path fill-rule="evenodd" clip-rule="evenodd" fill="#57AAAC" d="M55.049,62.343c-0.252-0.25-0.504-0.499-0.756-0.748
	c2.521-2.827,5.113-5.594,7.26-8.754C60.367,56.7,58.266,59.905,55.049,62.343z"/>
<path fill-rule="evenodd" clip-rule="evenodd" fill="#F0F6F6" d="M35.615,39.802c1.527-1.9,2.709-3.37,4.563-5.678
	C39.561,37.391,40.629,40.532,35.615,39.802z"/>
</svg>
