<?xml version="1.0" encoding="utf-8"?>
<!-- Generator: Adobe Illustrator 16.0.0, SVG Export Plug-In . SVG Version: 6.00 Build 0)  -->
<!DOCTYPE svg PUBLIC "-//W3C//DTD SVG 1.1//EN" "http://www.w3.org/Graphics/SVG/1.1/DTD/svg11.dtd">
<svg version="1.1" id="Layer_1" xmlns="http://www.w3.org/2000/svg" xmlns:xlink="http://www.w3.org/1999/xlink" x="0px" y="0px"
	 width="273.908px" height="61.496px" viewBox="0 0 273.908 61.496" enable-background="new 0 0 273.908 61.496"
	 xml:space="preserve">
<g>
	<g>
		<defs>
			<path id="SVGID_1_" d="M86.137,13.961c0,0,0,1.961,0,4.148c0,2.578,1.566,5.313,2.801,5.445c1.883,0.191,6.816,0.074,6.816,0.074
				v-5.277C95.754,18.352,95.496,13.566,86.137,13.961z"/>
		</defs>
		<clipPath id="SVGID_2_">
			<use xlink:href="#SVGID_1_"  overflow="visible"/>
		</clipPath>
		<g clip-path="url(#SVGID_2_)">
			
				<linearGradient id="SVGID_3_" gradientUnits="userSpaceOnUse" x1="113.7446" y1="-7.9204" x2="137.3353" y2="15.6703" gradientTransform="matrix(0.6598 0.7515 -0.7515 0.6598 15.9671 -62.0072)">
				<stop  offset="0" style="stop-color:#FFF33B"/>
				<stop  offset="0.0595" style="stop-color:#FFE029"/>
				<stop  offset="0.1303" style="stop-color:#FFD218"/>
				<stop  offset="0.2032" style="stop-color:#FEC90F"/>
				<stop  offset="0.2809" style="stop-color:#FDC70C"/>
				<stop  offset="0.6685" style="stop-color:#F3903F"/>
				<stop  offset="0.8876" style="stop-color:#ED683C"/>
				<stop  offset="1" style="stop-color:#E93E3A"/>
			</linearGradient>
			<path fill="url(#SVGID_3_)" d="M97.766,18.297c0,0-3.594,3.16-7.625,6.695c-4.719,4.148-7.23,11.453-5.484,13.914
				c2.672,3.785,10.871,12.68,10.871,12.68l9.699-8.523C105.227,43.063,113.598,34.844,97.766,18.297z"/>
			
				<linearGradient id="SVGID_4_" gradientUnits="userSpaceOnUse" x1="107.0776" y1="12.3931" x2="130.6649" y2="35.9803" gradientTransform="matrix(0.8594 0.5113 -0.5113 0.8594 1.0109 -57.0755)">
				<stop  offset="0" style="stop-color:#F9ED32"/>
				<stop  offset="1" style="stop-color:#EC008C"/>
			</linearGradient>
			<path fill="url(#SVGID_4_)" d="M87.473,8.125c0,0-2.445,4.113-5.188,8.719c-3.211,5.406-3.348,13.129-0.93,14.926
				c3.715,2.777,14.25,8.707,14.25,8.707l6.602-11.102C102.207,29.375,107.633,18.98,87.473,8.125z"/>
			
				<linearGradient id="SVGID_5_" gradientUnits="userSpaceOnUse" x1="108.6768" y1="20.6821" x2="124.6787" y2="20.6821" gradientTransform="matrix(0.8788 0.782 -0.7184 1.009 1.9237 -68.0505)">
				<stop  offset="0" style="stop-color:#662D91"/>
				<stop  offset="1" style="stop-color:#27AAE1"/>
			</linearGradient>
			<path fill="url(#SVGID_5_)" d="M84.27,35.414c0,0-0.324,2.996-0.695,6.34c-0.426,3.934,1.242,8.355,2.883,8.738
				c2.52,0.586,9.242,1.133,9.242,1.133l0.879-8.074C96.578,43.551,97.02,36.195,84.27,35.414z"/>
			
				<linearGradient id="SVGID_6_" gradientUnits="userSpaceOnUse" x1="93.2231" y1="-79.6763" x2="104.6094" y2="-68.2901" gradientTransform="matrix(-0.5877 0.8091 -0.8091 -0.5877 101.6299 -84.5981)">
				<stop  offset="0" style="stop-color:#FFF200"/>
				<stop  offset="0.3565" style="stop-color:#AFC67B"/>
				<stop  offset="1" style="stop-color:#008FD5"/>
			</linearGradient>
			<path fill="url(#SVGID_6_)" d="M111.371,38.039c0,0-1.867-1.359-3.965-2.883c-2.453-1.785-6.16-2.191-7.133-1.102
				c-1.5,1.66-4.813,6.465-4.813,6.465l5.039,3.66C100.5,44.18,105.258,47.258,111.371,38.039z"/>
		</g>
	</g>
	<g>
		<defs>
			<path id="SVGID_7_" d="M86.137,49.398c0,0,0-4.738,0-10.031c0-6.215,1.566-12.844,2.801-13.164
				c1.883-0.469,6.816-0.18,6.816-0.18v12.762C95.754,38.785,95.496,50.359,86.137,49.398z"/>
		</defs>
		<clipPath id="SVGID_8_">
			<use xlink:href="#SVGID_7_"  overflow="visible"/>
		</clipPath>
		<g clip-path="url(#SVGID_8_)">
			
				<linearGradient id="SVGID_9_" gradientUnits="userSpaceOnUse" x1="113.7446" y1="-7.9204" x2="137.3353" y2="15.6703" gradientTransform="matrix(0.6598 0.7515 -0.7515 0.6598 15.9671 -62.0072)">
				<stop  offset="0" style="stop-color:#FFF33B"/>
				<stop  offset="0.0595" style="stop-color:#FFE029"/>
				<stop  offset="0.1303" style="stop-color:#FFD218"/>
				<stop  offset="0.2032" style="stop-color:#FEC90F"/>
				<stop  offset="0.2809" style="stop-color:#FDC70C"/>
				<stop  offset="0.6685" style="stop-color:#F3903F"/>
				<stop  offset="0.8876" style="stop-color:#ED683C"/>
				<stop  offset="1" style="stop-color:#E93E3A"/>
			</linearGradient>
			<path fill="url(#SVGID_9_)" d="M97.766,18.297c0,0-3.594,3.16-7.625,6.695c-4.719,4.148-7.23,11.453-5.484,13.914
				c2.672,3.785,10.871,12.68,10.871,12.68l9.699-8.523C105.227,43.063,113.598,34.844,97.766,18.297z"/>
			
				<linearGradient id="SVGID_10_" gradientUnits="userSpaceOnUse" x1="107.0776" y1="12.3931" x2="130.6649" y2="35.9803" gradientTransform="matrix(0.8594 0.5113 -0.5113 0.8594 1.0109 -57.0755)">
				<stop  offset="0" style="stop-color:#F9ED32"/>
				<stop  offset="1" style="stop-color:#EC008C"/>
			</linearGradient>
			<path fill="url(#SVGID_10_)" d="M87.473,8.125c0,0-2.445,4.113-5.188,8.719c-3.211,5.406-3.348,13.129-0.93,14.926
				c3.715,2.777,14.25,8.707,14.25,8.707l6.602-11.102C102.207,29.375,107.633,18.98,87.473,8.125z"/>
			
				<linearGradient id="SVGID_11_" gradientUnits="userSpaceOnUse" x1="108.6768" y1="20.6821" x2="124.6787" y2="20.6821" gradientTransform="matrix(0.8788 0.782 -0.7184 1.009 1.9237 -68.0505)">
				<stop  offset="0" style="stop-color:#662D91"/>
				<stop  offset="1" style="stop-color:#27AAE1"/>
			</linearGradient>
			<path fill="url(#SVGID_11_)" d="M84.27,35.414c0,0-0.324,2.996-0.695,6.34c-0.426,3.934,1.242,8.355,2.883,8.738
				c2.52,0.586,9.242,1.133,9.242,1.133l0.879-8.074C96.578,43.551,97.02,36.195,84.27,35.414z"/>
			
				<linearGradient id="SVGID_12_" gradientUnits="userSpaceOnUse" x1="93.2231" y1="-79.6763" x2="104.6094" y2="-68.2901" gradientTransform="matrix(-0.5877 0.8091 -0.8091 -0.5877 101.6299 -84.5981)">
				<stop  offset="0" style="stop-color:#FFF200"/>
				<stop  offset="0.3565" style="stop-color:#AFC67B"/>
				<stop  offset="1" style="stop-color:#008FD5"/>
			</linearGradient>
			<path fill="url(#SVGID_12_)" d="M111.371,38.039c0,0-1.867-1.359-3.965-2.883c-2.453-1.785-6.16-2.191-7.133-1.102
				c-1.5,1.66-4.813,6.465-4.813,6.465l5.039,3.66C100.5,44.18,105.258,47.258,111.371,38.039z"/>
		</g>
	</g>
	<g>
		<defs>
			<path id="SVGID_13_" d="M108.996,13.961c0,0,0,1.961,0,4.148c0,2.578-1.563,5.313-2.797,5.445
				c-1.883,0.191-6.824,0.074-6.824,0.074v-5.277C99.375,18.352,99.637,13.566,108.996,13.961z"/>
		</defs>
		<clipPath id="SVGID_14_">
			<use xlink:href="#SVGID_13_"  overflow="visible"/>
		</clipPath>
		<g clip-path="url(#SVGID_14_)">
			
				<linearGradient id="SVGID_15_" gradientUnits="userSpaceOnUse" x1="55.7749" y1="-82.8013" x2="79.3615" y2="-59.2147" gradientTransform="matrix(0.551 -0.8345 -0.8345 -0.551 12.5719 43.5012)">
				<stop  offset="0" style="stop-color:#FFF33B"/>
				<stop  offset="0.0595" style="stop-color:#FFE029"/>
				<stop  offset="0.1303" style="stop-color:#FFD218"/>
				<stop  offset="0.2032" style="stop-color:#FEC90F"/>
				<stop  offset="0.2809" style="stop-color:#FDC70C"/>
				<stop  offset="0.6685" style="stop-color:#F3903F"/>
				<stop  offset="0.8876" style="stop-color:#ED683C"/>
				<stop  offset="1" style="stop-color:#E93E3A"/>
			</linearGradient>
			<path fill="url(#SVGID_15_)" d="M113.184,42.422c0,0-3.992-2.641-8.465-5.59c-5.242-3.465-8.73-10.359-7.336-13.035
				c2.133-4.117,9.039-14.039,9.039-14.039l10.773,7.109C117.195,16.867,126.609,23.867,113.184,42.422z"/>
			
				<linearGradient id="SVGID_16_" gradientUnits="userSpaceOnUse" x1="74.0786" y1="-76.9487" x2="97.6693" y2="-53.358" gradientTransform="matrix(0.7816 -0.6238 -0.6238 -0.7816 -2.3219 39.8829)">
				<stop  offset="0" style="stop-color:#F9ED32"/>
				<stop  offset="1" style="stop-color:#EC008C"/>
			</linearGradient>
			<path fill="url(#SVGID_16_)" d="M104.375,53.906c0,0-2.984-3.742-6.328-7.93c-3.922-4.91-5.109-12.547-2.957-14.66
				c3.297-3.258,12.926-10.574,12.926-10.574l8.055,10.102C116.07,30.844,122.863,40.398,104.375,53.906z"/>
			
				<linearGradient id="SVGID_17_" gradientUnits="userSpaceOnUse" x1="74.5259" y1="-46.1689" x2="90.5234" y2="-46.1689" gradientTransform="matrix(0.7638 -0.8947 -0.8494 -0.9015 -0.667 50.2298)">
				<stop  offset="0" style="stop-color:#662D91"/>
				<stop  offset="1" style="stop-color:#27AAE1"/>
			</linearGradient>
			<path fill="url(#SVGID_17_)" d="M97.48,27.305c0,0-0.738-2.918-1.559-6.18c-0.957-3.836,0.094-8.453,1.668-9.055
				c2.414-0.914,8.996-2.383,8.996-2.383l1.977,7.883C108.563,17.57,110,24.797,97.48,27.305z"/>
			
				<linearGradient id="SVGID_18_" gradientUnits="userSpaceOnUse" x1="7.3687" y1="-38.6147" x2="18.7562" y2="-27.2271" gradientTransform="matrix(-0.6926 -0.7213 -0.7213 0.6926 101.2068 53.4579)">
				<stop  offset="0" style="stop-color:#FFF200"/>
				<stop  offset="0.3565" style="stop-color:#AFC67B"/>
				<stop  offset="1" style="stop-color:#008FD5"/>
			</linearGradient>
			<path fill="url(#SVGID_18_)" d="M123.965,21.008c0,0-1.664,1.602-3.531,3.398c-2.191,2.102-5.805,3.008-6.918,2.066
				c-1.711-1.441-5.652-5.746-5.652-5.746l4.496-4.32C112.359,16.406,116.656,12.719,123.965,21.008z"/>
		</g>
	</g>
	<g>
		<defs>
			<path id="SVGID_19_" d="M108.996,49.398c0,0,0-4.738,0-10.031c0-6.215-1.563-12.844-2.797-13.164
				c-1.883-0.469-6.824-0.18-6.824-0.18v12.762C99.375,38.785,99.637,50.359,108.996,49.398z"/>
		</defs>
		<clipPath id="SVGID_20_">
			<use xlink:href="#SVGID_19_"  overflow="visible"/>
		</clipPath>
		<g clip-path="url(#SVGID_20_)">
			
				<linearGradient id="SVGID_21_" gradientUnits="userSpaceOnUse" x1="55.7749" y1="-82.8013" x2="79.3615" y2="-59.2147" gradientTransform="matrix(0.551 -0.8345 -0.8345 -0.551 12.5719 43.5012)">
				<stop  offset="0" style="stop-color:#FFF33B"/>
				<stop  offset="0.0595" style="stop-color:#FFE029"/>
				<stop  offset="0.1303" style="stop-color:#FFD218"/>
				<stop  offset="0.2032" style="stop-color:#FEC90F"/>
				<stop  offset="0.2809" style="stop-color:#FDC70C"/>
				<stop  offset="0.6685" style="stop-color:#F3903F"/>
				<stop  offset="0.8876" style="stop-color:#ED683C"/>
				<stop  offset="1" style="stop-color:#E93E3A"/>
			</linearGradient>
			<path fill="url(#SVGID_21_)" d="M113.184,42.422c0,0-3.992-2.641-8.465-5.59c-5.242-3.465-8.73-10.359-7.336-13.035
				c2.133-4.117,9.039-14.039,9.039-14.039l10.773,7.109C117.195,16.867,126.609,23.867,113.184,42.422z"/>
			
				<linearGradient id="SVGID_22_" gradientUnits="userSpaceOnUse" x1="74.0786" y1="-76.9487" x2="97.6693" y2="-53.358" gradientTransform="matrix(0.7816 -0.6238 -0.6238 -0.7816 -2.3219 39.8829)">
				<stop  offset="0" style="stop-color:#F9ED32"/>
				<stop  offset="1" style="stop-color:#EC008C"/>
			</linearGradient>
			<path fill="url(#SVGID_22_)" d="M104.375,53.906c0,0-2.984-3.742-6.328-7.93c-3.922-4.91-5.109-12.547-2.957-14.66
				c3.297-3.258,12.926-10.574,12.926-10.574l8.055,10.102C116.07,30.844,122.863,40.398,104.375,53.906z"/>
			
				<linearGradient id="SVGID_23_" gradientUnits="userSpaceOnUse" x1="74.5259" y1="-46.1689" x2="90.5234" y2="-46.1689" gradientTransform="matrix(0.7638 -0.8947 -0.8494 -0.9015 -0.667 50.2298)">
				<stop  offset="0" style="stop-color:#662D91"/>
				<stop  offset="1" style="stop-color:#27AAE1"/>
			</linearGradient>
			<path fill="url(#SVGID_23_)" d="M97.48,27.305c0,0-0.738-2.918-1.559-6.18c-0.957-3.836,0.094-8.453,1.668-9.055
				c2.414-0.914,8.996-2.383,8.996-2.383l1.977,7.883C108.563,17.57,110,24.797,97.48,27.305z"/>
			
				<linearGradient id="SVGID_24_" gradientUnits="userSpaceOnUse" x1="7.3687" y1="-38.6147" x2="18.7562" y2="-27.2271" gradientTransform="matrix(-0.6926 -0.7213 -0.7213 0.6926 101.2068 53.4579)">
				<stop  offset="0" style="stop-color:#FFF200"/>
				<stop  offset="0.3565" style="stop-color:#AFC67B"/>
				<stop  offset="1" style="stop-color:#008FD5"/>
			</linearGradient>
			<path fill="url(#SVGID_24_)" d="M123.965,21.008c0,0-1.664,1.602-3.531,3.398c-2.191,2.102-5.805,3.008-6.918,2.066
				c-1.711-1.441-5.652-5.746-5.652-5.746l4.496-4.32C112.359,16.406,116.656,12.719,123.965,21.008z"/>
		</g>
	</g>
	<g>
		<defs>
			<path id="SVGID_25_" d="M59.289,49.453h-7.883V14.141h7.883v13.813h13.758V14.141h7.934v35.313h-7.934V35.547H59.289V49.453z"/>
		</defs>
		<clipPath id="SVGID_26_">
			<use xlink:href="#SVGID_25_"  overflow="visible"/>
		</clipPath>
		<g clip-path="url(#SVGID_26_)">
			
				<linearGradient id="SVGID_27_" gradientUnits="userSpaceOnUse" x1="80.1328" y1="3.7227" x2="120.0001" y2="43.5899" gradientTransform="matrix(0.7525 0.6586 -0.6586 0.7525 10.2344 -52.3317)">
				<stop  offset="0" style="stop-color:#FFF33B"/>
				<stop  offset="0.0595" style="stop-color:#FFE029"/>
				<stop  offset="0.1303" style="stop-color:#FFD218"/>
				<stop  offset="0.2032" style="stop-color:#FEC90F"/>
				<stop  offset="0.2809" style="stop-color:#FDC70C"/>
				<stop  offset="0.6685" style="stop-color:#F3903F"/>
				<stop  offset="0.8876" style="stop-color:#ED683C"/>
				<stop  offset="1" style="stop-color:#E93E3A"/>
			</linearGradient>
			<path fill="url(#SVGID_27_)" d="M69.434,3.156c0,0-5.324,6.09-11.297,12.895c-6.992,8.004-9.586,20.797-6.113,24.535
				c5.32,5.754,21.02,18.836,21.02,18.836L87.414,43C87.414,43,99.621,27.379,69.434,3.156z"/>
			
				<linearGradient id="SVGID_28_" gradientUnits="userSpaceOnUse" x1="60.9331" y1="10.7573" x2="100.8011" y2="50.6253" gradientTransform="matrix(0.919 0.3943 -0.3943 0.919 -3.0857 -45.0257)">
				<stop  offset="0" style="stop-color:#F9ED32"/>
				<stop  offset="1" style="stop-color:#EC008C"/>
			</linearGradient>
			<path fill="url(#SVGID_28_)" d="M49.93-11.617c0,0-3.188,7.438-6.762,15.758c-4.191,9.762-2.707,22.734,1.746,25.227
				c6.836,3.824,25.805,11.426,25.805,11.426l8.605-20.059C79.324,20.734,86.117,2.117,49.93-11.617z"/>
			
				<linearGradient id="SVGID_29_" gradientUnits="userSpaceOnUse" x1="78.2681" y1="39.5352" x2="105.3149" y2="39.5352" gradientTransform="matrix(0.9736 0.6602 -0.5801 1.0944 -4.9823 -55.745)">
				<stop  offset="0" style="stop-color:#662D91"/>
				<stop  offset="1" style="stop-color:#27AAE1"/>
			</linearGradient>
			<path fill="url(#SVGID_29_)" d="M50.605,34.816c0,0,0.113,5.098,0.234,10.785c0.16,6.688,3.934,13.73,6.77,13.996
				c4.352,0.426,15.738-0.148,15.738-0.148L73.031,45.73C73.031,45.73,72.141,33.305,50.605,34.816z"/>
			
				<linearGradient id="SVGID_30_" gradientUnits="userSpaceOnUse" x1="101.8608" y1="-59.0054" x2="121.1109" y2="-39.7554" gradientTransform="matrix(-0.4766 0.8791 -0.8791 -0.4766 93.0865 -85.0778)">
				<stop  offset="0" style="stop-color:#FFF200"/>
				<stop  offset="0.3565" style="stop-color:#AFC67B"/>
				<stop  offset="1" style="stop-color:#008FD5"/>
			</linearGradient>
			<path fill="url(#SVGID_30_)" d="M96.598,33.219c0,0-3.434-1.859-7.277-3.949c-4.508-2.445-10.813-2.305-12.203-0.27
				c-2.145,3.121-6.637,11.898-6.637,11.898l9.258,5.027C79.738,45.926,88.398,50.016,96.598,33.219z"/>
		</g>
	</g>
	<g opacity="0.8">
		<g>
			<defs>
				<path id="SVGID_31_" d="M86.137,13.961c0,0,0,1.961,0,4.148c0,2.578,1.566,5.313,2.801,5.445
					c1.883,0.191,6.816,0.074,6.816,0.074v-5.277C95.754,18.352,95.496,13.566,86.137,13.961z"/>
			</defs>
			<clipPath id="SVGID_32_">
				<use xlink:href="#SVGID_31_"  overflow="visible"/>
			</clipPath>
			<g clip-path="url(#SVGID_32_)">
				
					<linearGradient id="SVGID_33_" gradientUnits="userSpaceOnUse" x1="113.7446" y1="-7.9204" x2="137.3353" y2="15.6703" gradientTransform="matrix(0.6598 0.7515 -0.7515 0.6598 15.9671 -62.0072)">
					<stop  offset="0" style="stop-color:#FFF33B"/>
					<stop  offset="0.0595" style="stop-color:#FFE029"/>
					<stop  offset="0.1303" style="stop-color:#FFD218"/>
					<stop  offset="0.2032" style="stop-color:#FEC90F"/>
					<stop  offset="0.2809" style="stop-color:#FDC70C"/>
					<stop  offset="0.6685" style="stop-color:#F3903F"/>
					<stop  offset="0.8876" style="stop-color:#ED683C"/>
					<stop  offset="1" style="stop-color:#E93E3A"/>
				</linearGradient>
				<path fill="url(#SVGID_33_)" d="M97.766,18.297c0,0-3.594,3.16-7.625,6.695c-4.719,4.148-7.23,11.453-5.484,13.914
					c2.672,3.785,10.871,12.68,10.871,12.68l9.699-8.523C105.227,43.063,113.598,34.844,97.766,18.297z"/>
				
					<linearGradient id="SVGID_34_" gradientUnits="userSpaceOnUse" x1="107.0776" y1="12.3931" x2="130.6649" y2="35.9803" gradientTransform="matrix(0.8594 0.5113 -0.5113 0.8594 1.0109 -57.0755)">
					<stop  offset="0" style="stop-color:#F9ED32"/>
					<stop  offset="1" style="stop-color:#EC008C"/>
				</linearGradient>
				<path fill="url(#SVGID_34_)" d="M87.473,8.125c0,0-2.445,4.113-5.188,8.719c-3.211,5.406-3.348,13.129-0.93,14.926
					c3.715,2.777,14.25,8.707,14.25,8.707l6.602-11.102C102.207,29.375,107.633,18.98,87.473,8.125z"/>
				
					<linearGradient id="SVGID_35_" gradientUnits="userSpaceOnUse" x1="108.6768" y1="20.6821" x2="124.6787" y2="20.6821" gradientTransform="matrix(0.8788 0.782 -0.7184 1.009 1.9237 -68.0505)">
					<stop  offset="0" style="stop-color:#662D91"/>
					<stop  offset="1" style="stop-color:#27AAE1"/>
				</linearGradient>
				<path fill="url(#SVGID_35_)" d="M84.27,35.414c0,0-0.324,2.996-0.695,6.34c-0.426,3.934,1.242,8.355,2.883,8.738
					c2.52,0.586,9.242,1.133,9.242,1.133l0.879-8.074C96.578,43.551,97.02,36.195,84.27,35.414z"/>
				
					<linearGradient id="SVGID_36_" gradientUnits="userSpaceOnUse" x1="93.2231" y1="-79.6763" x2="104.6094" y2="-68.2901" gradientTransform="matrix(-0.5877 0.8091 -0.8091 -0.5877 101.6299 -84.5981)">
					<stop  offset="0" style="stop-color:#FFF200"/>
					<stop  offset="0.3565" style="stop-color:#AFC67B"/>
					<stop  offset="1" style="stop-color:#008FD5"/>
				</linearGradient>
				<path fill="url(#SVGID_36_)" d="M111.371,38.039c0,0-1.867-1.359-3.965-2.883c-2.453-1.785-6.16-2.191-7.133-1.102
					c-1.5,1.66-4.813,6.465-4.813,6.465l5.039,3.66C100.5,44.18,105.258,47.258,111.371,38.039z"/>
			</g>
		</g>
		<g>
			<defs>
				<path id="SVGID_37_" d="M86.137,49.398c0,0,0-4.738,0-10.031c0-6.215,1.566-12.844,2.801-13.164
					c1.883-0.469,6.816-0.18,6.816-0.18v12.762C95.754,38.785,95.496,50.359,86.137,49.398z"/>
			</defs>
			<clipPath id="SVGID_38_">
				<use xlink:href="#SVGID_37_"  overflow="visible"/>
			</clipPath>
			<g clip-path="url(#SVGID_38_)">
				
					<linearGradient id="SVGID_39_" gradientUnits="userSpaceOnUse" x1="113.7446" y1="-7.9204" x2="137.3353" y2="15.6703" gradientTransform="matrix(0.6598 0.7515 -0.7515 0.6598 15.9671 -62.0072)">
					<stop  offset="0" style="stop-color:#FFF33B"/>
					<stop  offset="0.0595" style="stop-color:#FFE029"/>
					<stop  offset="0.1303" style="stop-color:#FFD218"/>
					<stop  offset="0.2032" style="stop-color:#FEC90F"/>
					<stop  offset="0.2809" style="stop-color:#FDC70C"/>
					<stop  offset="0.6685" style="stop-color:#F3903F"/>
					<stop  offset="0.8876" style="stop-color:#ED683C"/>
					<stop  offset="1" style="stop-color:#E93E3A"/>
				</linearGradient>
				<path fill="url(#SVGID_39_)" d="M97.766,18.297c0,0-3.594,3.16-7.625,6.695c-4.719,4.148-7.23,11.453-5.484,13.914
					c2.672,3.785,10.871,12.68,10.871,12.68l9.699-8.523C105.227,43.063,113.598,34.844,97.766,18.297z"/>
				
					<linearGradient id="SVGID_40_" gradientUnits="userSpaceOnUse" x1="107.0776" y1="12.3931" x2="130.6649" y2="35.9803" gradientTransform="matrix(0.8594 0.5113 -0.5113 0.8594 1.0109 -57.0755)">
					<stop  offset="0" style="stop-color:#F9ED32"/>
					<stop  offset="1" style="stop-color:#EC008C"/>
				</linearGradient>
				<path fill="url(#SVGID_40_)" d="M87.473,8.125c0,0-2.445,4.113-5.188,8.719c-3.211,5.406-3.348,13.129-0.93,14.926
					c3.715,2.777,14.25,8.707,14.25,8.707l6.602-11.102C102.207,29.375,107.633,18.98,87.473,8.125z"/>
				
					<linearGradient id="SVGID_41_" gradientUnits="userSpaceOnUse" x1="108.6768" y1="20.6821" x2="124.6787" y2="20.6821" gradientTransform="matrix(0.8788 0.782 -0.7184 1.009 1.9237 -68.0505)">
					<stop  offset="0" style="stop-color:#662D91"/>
					<stop  offset="1" style="stop-color:#27AAE1"/>
				</linearGradient>
				<path fill="url(#SVGID_41_)" d="M84.27,35.414c0,0-0.324,2.996-0.695,6.34c-0.426,3.934,1.242,8.355,2.883,8.738
					c2.52,0.586,9.242,1.133,9.242,1.133l0.879-8.074C96.578,43.551,97.02,36.195,84.27,35.414z"/>
				
					<linearGradient id="SVGID_42_" gradientUnits="userSpaceOnUse" x1="93.2231" y1="-79.6763" x2="104.6094" y2="-68.2901" gradientTransform="matrix(-0.5877 0.8091 -0.8091 -0.5877 101.6299 -84.5981)">
					<stop  offset="0" style="stop-color:#FFF200"/>
					<stop  offset="0.3565" style="stop-color:#AFC67B"/>
					<stop  offset="1" style="stop-color:#008FD5"/>
				</linearGradient>
				<path fill="url(#SVGID_42_)" d="M111.371,38.039c0,0-1.867-1.359-3.965-2.883c-2.453-1.785-6.16-2.191-7.133-1.102
					c-1.5,1.66-4.813,6.465-4.813,6.465l5.039,3.66C100.5,44.18,105.258,47.258,111.371,38.039z"/>
			</g>
		</g>
		<g>
			<defs>
				<path id="SVGID_43_" d="M108.996,13.961c0,0,0,1.961,0,4.148c0,2.578-1.563,5.313-2.797,5.445
					c-1.883,0.191-6.824,0.074-6.824,0.074v-5.277C99.375,18.352,99.637,13.566,108.996,13.961z"/>
			</defs>
			<clipPath id="SVGID_44_">
				<use xlink:href="#SVGID_43_"  overflow="visible"/>
			</clipPath>
			<g clip-path="url(#SVGID_44_)">
				
					<linearGradient id="SVGID_45_" gradientUnits="userSpaceOnUse" x1="55.7749" y1="-82.8013" x2="79.3615" y2="-59.2147" gradientTransform="matrix(0.551 -0.8345 -0.8345 -0.551 12.5719 43.5012)">
					<stop  offset="0" style="stop-color:#FFF33B"/>
					<stop  offset="0.0595" style="stop-color:#FFE029"/>
					<stop  offset="0.1303" style="stop-color:#FFD218"/>
					<stop  offset="0.2032" style="stop-color:#FEC90F"/>
					<stop  offset="0.2809" style="stop-color:#FDC70C"/>
					<stop  offset="0.6685" style="stop-color:#F3903F"/>
					<stop  offset="0.8876" style="stop-color:#ED683C"/>
					<stop  offset="1" style="stop-color:#E93E3A"/>
				</linearGradient>
				<path fill="url(#SVGID_45_)" d="M113.184,42.422c0,0-3.992-2.641-8.465-5.59c-5.242-3.465-8.73-10.359-7.336-13.035
					c2.133-4.117,9.039-14.039,9.039-14.039l10.773,7.109C117.195,16.867,126.609,23.867,113.184,42.422z"/>
				
					<linearGradient id="SVGID_46_" gradientUnits="userSpaceOnUse" x1="74.0786" y1="-76.9487" x2="97.6693" y2="-53.358" gradientTransform="matrix(0.7816 -0.6238 -0.6238 -0.7816 -2.3219 39.8829)">
					<stop  offset="0" style="stop-color:#F9ED32"/>
					<stop  offset="1" style="stop-color:#EC008C"/>
				</linearGradient>
				<path fill="url(#SVGID_46_)" d="M104.375,53.906c0,0-2.984-3.742-6.328-7.93c-3.922-4.91-5.109-12.547-2.957-14.66
					c3.297-3.258,12.926-10.574,12.926-10.574l8.055,10.102C116.07,30.844,122.863,40.398,104.375,53.906z"/>
				
					<linearGradient id="SVGID_47_" gradientUnits="userSpaceOnUse" x1="74.5259" y1="-46.1689" x2="90.5234" y2="-46.1689" gradientTransform="matrix(0.7638 -0.8947 -0.8494 -0.9015 -0.667 50.2298)">
					<stop  offset="0" style="stop-color:#662D91"/>
					<stop  offset="1" style="stop-color:#27AAE1"/>
				</linearGradient>
				<path fill="url(#SVGID_47_)" d="M97.48,27.305c0,0-0.738-2.918-1.559-6.18c-0.957-3.836,0.094-8.453,1.668-9.055
					c2.414-0.914,8.996-2.383,8.996-2.383l1.977,7.883C108.563,17.57,110,24.797,97.48,27.305z"/>
				
					<linearGradient id="SVGID_48_" gradientUnits="userSpaceOnUse" x1="7.3687" y1="-38.6147" x2="18.7562" y2="-27.2271" gradientTransform="matrix(-0.6926 -0.7213 -0.7213 0.6926 101.2068 53.4579)">
					<stop  offset="0" style="stop-color:#FFF200"/>
					<stop  offset="0.3565" style="stop-color:#AFC67B"/>
					<stop  offset="1" style="stop-color:#008FD5"/>
				</linearGradient>
				<path fill="url(#SVGID_48_)" d="M123.965,21.008c0,0-1.664,1.602-3.531,3.398c-2.191,2.102-5.805,3.008-6.918,2.066
					c-1.711-1.441-5.652-5.746-5.652-5.746l4.496-4.32C112.359,16.406,116.656,12.719,123.965,21.008z"/>
			</g>
		</g>
		<g>
			<defs>
				<path id="SVGID_49_" d="M108.996,49.398c0,0,0-4.738,0-10.031c0-6.215-1.563-12.844-2.797-13.164
					c-1.883-0.469-6.824-0.18-6.824-0.18v12.762C99.375,38.785,99.637,50.359,108.996,49.398z"/>
			</defs>
			<clipPath id="SVGID_50_">
				<use xlink:href="#SVGID_49_"  overflow="visible"/>
			</clipPath>
			<g clip-path="url(#SVGID_50_)">
				
					<linearGradient id="SVGID_51_" gradientUnits="userSpaceOnUse" x1="55.7749" y1="-82.8013" x2="79.3615" y2="-59.2147" gradientTransform="matrix(0.551 -0.8345 -0.8345 -0.551 12.5719 43.5012)">
					<stop  offset="0" style="stop-color:#FFF33B"/>
					<stop  offset="0.0595" style="stop-color:#FFE029"/>
					<stop  offset="0.1303" style="stop-color:#FFD218"/>
					<stop  offset="0.2032" style="stop-color:#FEC90F"/>
					<stop  offset="0.2809" style="stop-color:#FDC70C"/>
					<stop  offset="0.6685" style="stop-color:#F3903F"/>
					<stop  offset="0.8876" style="stop-color:#ED683C"/>
					<stop  offset="1" style="stop-color:#E93E3A"/>
				</linearGradient>
				<path fill="url(#SVGID_51_)" d="M113.184,42.422c0,0-3.992-2.641-8.465-5.59c-5.242-3.465-8.73-10.359-7.336-13.035
					c2.133-4.117,9.039-14.039,9.039-14.039l10.773,7.109C117.195,16.867,126.609,23.867,113.184,42.422z"/>
				
					<linearGradient id="SVGID_52_" gradientUnits="userSpaceOnUse" x1="74.0786" y1="-76.9487" x2="97.6693" y2="-53.358" gradientTransform="matrix(0.7816 -0.6238 -0.6238 -0.7816 -2.3219 39.8829)">
					<stop  offset="0" style="stop-color:#F9ED32"/>
					<stop  offset="1" style="stop-color:#EC008C"/>
				</linearGradient>
				<path fill="url(#SVGID_52_)" d="M104.375,53.906c0,0-2.984-3.742-6.328-7.93c-3.922-4.91-5.109-12.547-2.957-14.66
					c3.297-3.258,12.926-10.574,12.926-10.574l8.055,10.102C116.07,30.844,122.863,40.398,104.375,53.906z"/>
				
					<linearGradient id="SVGID_53_" gradientUnits="userSpaceOnUse" x1="74.5259" y1="-46.1689" x2="90.5234" y2="-46.1689" gradientTransform="matrix(0.7638 -0.8947 -0.8494 -0.9015 -0.667 50.2298)">
					<stop  offset="0" style="stop-color:#662D91"/>
					<stop  offset="1" style="stop-color:#27AAE1"/>
				</linearGradient>
				<path fill="url(#SVGID_53_)" d="M97.48,27.305c0,0-0.738-2.918-1.559-6.18c-0.957-3.836,0.094-8.453,1.668-9.055
					c2.414-0.914,8.996-2.383,8.996-2.383l1.977,7.883C108.563,17.57,110,24.797,97.48,27.305z"/>
				
					<linearGradient id="SVGID_54_" gradientUnits="userSpaceOnUse" x1="7.3687" y1="-38.6147" x2="18.7562" y2="-27.2271" gradientTransform="matrix(-0.6926 -0.7213 -0.7213 0.6926 101.2068 53.4579)">
					<stop  offset="0" style="stop-color:#FFF200"/>
					<stop  offset="0.3565" style="stop-color:#AFC67B"/>
					<stop  offset="1" style="stop-color:#008FD5"/>
				</linearGradient>
				<path fill="url(#SVGID_54_)" d="M123.965,21.008c0,0-1.664,1.602-3.531,3.398c-2.191,2.102-5.805,3.008-6.918,2.066
					c-1.711-1.441-5.652-5.746-5.652-5.746l4.496-4.32C112.359,16.406,116.656,12.719,123.965,21.008z"/>
			</g>
		</g>
		<g>
			<defs>
				<path id="SVGID_55_" d="M59.289,49.453h-7.883V14.141h7.883v13.813h13.758V14.141h7.934v35.313h-7.934V35.547H59.289V49.453z"/>
			</defs>
			<clipPath id="SVGID_56_">
				<use xlink:href="#SVGID_55_"  overflow="visible"/>
			</clipPath>
			<g clip-path="url(#SVGID_56_)">
				
					<linearGradient id="SVGID_57_" gradientUnits="userSpaceOnUse" x1="80.1328" y1="3.7227" x2="120.0001" y2="43.5899" gradientTransform="matrix(0.7525 0.6586 -0.6586 0.7525 10.2344 -52.3317)">
					<stop  offset="0" style="stop-color:#FFF33B"/>
					<stop  offset="0.0595" style="stop-color:#FFE029"/>
					<stop  offset="0.1303" style="stop-color:#FFD218"/>
					<stop  offset="0.2032" style="stop-color:#FEC90F"/>
					<stop  offset="0.2809" style="stop-color:#FDC70C"/>
					<stop  offset="0.6685" style="stop-color:#F3903F"/>
					<stop  offset="0.8876" style="stop-color:#ED683C"/>
					<stop  offset="1" style="stop-color:#E93E3A"/>
				</linearGradient>
				<path fill="url(#SVGID_57_)" d="M69.434,3.156c0,0-5.324,6.09-11.297,12.895c-6.992,8.004-9.586,20.797-6.113,24.535
					c5.32,5.754,21.02,18.836,21.02,18.836L87.414,43C87.414,43,99.621,27.379,69.434,3.156z"/>
				
					<linearGradient id="SVGID_58_" gradientUnits="userSpaceOnUse" x1="60.9331" y1="10.7573" x2="100.8011" y2="50.6253" gradientTransform="matrix(0.919 0.3943 -0.3943 0.919 -3.0857 -45.0257)">
					<stop  offset="0" style="stop-color:#F9ED32"/>
					<stop  offset="1" style="stop-color:#EC008C"/>
				</linearGradient>
				<path fill="url(#SVGID_58_)" d="M49.93-11.617c0,0-3.188,7.438-6.762,15.758c-4.191,9.762-2.707,22.734,1.746,25.227
					c6.836,3.824,25.805,11.426,25.805,11.426l8.605-20.059C79.324,20.734,86.117,2.117,49.93-11.617z"/>
				
					<linearGradient id="SVGID_59_" gradientUnits="userSpaceOnUse" x1="78.2681" y1="39.5352" x2="105.3149" y2="39.5352" gradientTransform="matrix(0.9736 0.6602 -0.5801 1.0944 -4.9823 -55.745)">
					<stop  offset="0" style="stop-color:#662D91"/>
					<stop  offset="1" style="stop-color:#27AAE1"/>
				</linearGradient>
				<path fill="url(#SVGID_59_)" d="M50.605,34.816c0,0,0.113,5.098,0.234,10.785c0.16,6.688,3.934,13.73,6.77,13.996
					c4.352,0.426,15.738-0.148,15.738-0.148L73.031,45.73C73.031,45.73,72.141,33.305,50.605,34.816z"/>
				
					<linearGradient id="SVGID_60_" gradientUnits="userSpaceOnUse" x1="101.8608" y1="-59.0054" x2="121.1109" y2="-39.7554" gradientTransform="matrix(-0.4766 0.8791 -0.8791 -0.4766 93.0865 -85.0778)">
					<stop  offset="0" style="stop-color:#FFF200"/>
					<stop  offset="0.3565" style="stop-color:#AFC67B"/>
					<stop  offset="1" style="stop-color:#008FD5"/>
				</linearGradient>
				<path fill="url(#SVGID_60_)" d="M96.598,33.219c0,0-3.434-1.859-7.277-3.949c-4.508-2.445-10.813-2.305-12.203-0.27
					c-2.145,3.121-6.637,11.898-6.637,11.898l9.258,5.027C79.738,45.926,88.398,50.016,96.598,33.219z"/>
			</g>
		</g>
	</g>
	<g>
		<linearGradient id="SVGID_61_" gradientUnits="userSpaceOnUse" x1="-1.0898" y1="8.5205" x2="44.2285" y2="53.8389">
			<stop  offset="0" style="stop-color:#FFF200"/>
			<stop  offset="0.3565" style="stop-color:#AFC67B"/>
			<stop  offset="1" style="stop-color:#008FD5"/>
		</linearGradient>
		<path fill="url(#SVGID_61_)" d="M0,7.43c0,0,0,9.195,0,19.492c0,12.07,7.363,24.961,13.129,25.566
			c8.855,0.926,32.078,0.371,32.078,0.371V28.055C45.207,28.055,43.953,5.555,0,7.43z"/>
		<linearGradient id="SVGID_62_" gradientUnits="userSpaceOnUse" x1="-1.0898" y1="8.5205" x2="44.2285" y2="53.8389">
			<stop  offset="0" style="stop-color:#FFF200"/>
			<stop  offset="0.3565" style="stop-color:#AFC67B"/>
			<stop  offset="1" style="stop-color:#008FD5"/>
		</linearGradient>
		<path fill="url(#SVGID_62_)" d="M0,7.43c0,0,0,9.195,0,19.492c0,12.07,7.363,24.961,13.129,25.566
			c8.855,0.926,32.078,0.371,32.078,0.371V28.055C45.207,28.055,43.953,5.555,0,7.43z"/>
		
			<linearGradient id="SVGID_63_" gradientUnits="userSpaceOnUse" x1="5.2012" y1="9.1807" x2="50.5182" y2="54.4976" gradientTransform="matrix(0.9841 0.1778 -0.1778 0.9841 1.7095 -9.0796)">
			<stop  offset="0" style="stop-color:#FFF200"/>
			<stop  offset="0.3565" style="stop-color:#AFC67B"/>
			<stop  offset="1" style="stop-color:#008FD5"/>
		</linearGradient>
		<path fill="url(#SVGID_63_)" d="M6.465,0c0,0-1.637,9.055-3.473,19.188c-2.145,11.879,2.813,25.875,8.383,27.488
			c8.547,2.496,31.496,6.07,31.496,6.07l4.414-24.41C47.285,28.336,50.051,5.977,6.465,0z"/>
	</g>
	<g>
		<path fill="#F26522" d="M141.828,49.348h-25.516V14.037h7.933v27.761h17.583V49.348z"/>
		<path fill="#F26522" d="M175.801,49.348h-8.218l-2.342-7.119h-11.85l-2.438,7.119h-8.218l13.235-35.311h6.881L175.801,49.348z
			 M163.139,35.3l-3.774-11.181L155.542,35.3H163.139z"/>
		<path fill="#F26522" d="M201.078,29.996c2.166,0.542,3.83,1.617,4.993,3.225c1.162,1.609,1.744,3.545,1.744,5.806
			c0,2.932-1.036,5.384-3.106,7.358c-2.07,1.976-4.794,2.963-8.17,2.963h-16.677V14.037h15.864c3.28,0,5.797,0.876,7.55,2.628
			c1.783,1.72,2.676,3.759,2.676,6.116c0,1.593-0.447,3.058-1.338,4.396C203.722,28.515,202.543,29.455,201.078,29.996z
			 M194.341,20.821h-6.689v6.929h6.354c1.274,0,2.277-0.334,3.011-1.003c0.732-0.669,1.099-1.513,1.099-2.533
			c0-0.955-0.343-1.76-1.027-2.413C196.403,21.148,195.487,20.821,194.341,20.821z M187.651,42.515h7.215
			c1.497,0,2.668-0.397,3.512-1.194c0.844-0.796,1.267-1.783,1.267-2.963c0-1.21-0.406-2.205-1.219-2.986
			c-0.812-0.78-1.951-1.17-3.416-1.17h-7.358V42.515z"/>
		<path fill="#F26522" d="M237.87,49.348h-24.608V14.037h24.656v7.358h-16.724v6.546h15.481v7.311h-15.481v6.737h16.676V49.348z"/>
		<path fill="#F26522" d="M269.691,49.348h-25.516V14.037h7.933v27.761h17.583V49.348z"/>
	</g>
	<g>
		<path d="M55.201,59.284v1.392h-0.26v-1.387l-1.501-2.117h0.325l1.312,1.883l1.316-1.883h0.31L55.201,59.284z"/>
		<path d="M64.031,60.736c-1.061,0-1.757-0.847-1.757-1.803v-0.01c0-0.956,0.706-1.812,1.767-1.812c1.062,0,1.757,0.846,1.757,1.802
			c0.005,0.005,0.005,0.005,0,0.01C65.798,59.88,65.092,60.736,64.031,60.736z M65.528,58.924c0-0.865-0.631-1.576-1.497-1.576
			s-1.486,0.7-1.486,1.566v0.01c0,0.866,0.63,1.577,1.496,1.577c0.866,0,1.487-0.701,1.487-1.567V58.924z"/>
		<path d="M73.411,60.73c-0.841,0-1.437-0.53-1.437-1.511v-2.048h0.26v2.022c0,0.826,0.446,1.302,1.186,1.302
			c0.711,0,1.167-0.431,1.167-1.276v-2.048h0.26v2.018C74.848,60.195,74.262,60.73,73.411,60.73z"/>
		<path d="M83.702,60.676l-1.116-1.451h-1.146v1.451h-0.26v-3.504h1.472c0.756,0,1.251,0.411,1.251,0.996v0.011
			c0,0.585-0.436,0.921-1.026,1.001l1.156,1.496H83.702z M83.643,58.179c0-0.471-0.371-0.767-1.007-0.767h-1.196v1.577h1.182
			c0.586,0,1.021-0.296,1.021-0.801V58.179z"/>
		<path d="M98.226,57.412v3.264h-0.261v-3.264h-1.221v-0.24h2.702v0.24H98.226z"/>
		<path d="M108.107,60.676l-1.116-1.451h-1.146v1.451h-0.261v-3.504h1.472c0.756,0,1.251,0.411,1.251,0.996v0.011
			c0,0.585-0.436,0.921-1.026,1.001l1.156,1.496H108.107z M108.047,58.179c0-0.471-0.37-0.767-1.006-0.767h-1.195v1.577h1.181
			c0.586,0,1.021-0.296,1.021-0.801V58.179z"/>
		<path d="M115.932,60.73c-0.842,0-1.437-0.53-1.437-1.511v-2.048h0.26v2.022c0,0.826,0.445,1.302,1.187,1.302
			c0.711,0,1.166-0.431,1.166-1.276v-2.048h0.26v2.018C117.367,60.195,116.782,60.73,115.932,60.73z"/>
		<path d="M124.886,60.726c-0.561,0-0.991-0.185-1.412-0.561l0.171-0.195c0.385,0.355,0.74,0.521,1.256,0.521
			c0.525,0,0.886-0.295,0.886-0.695v-0.01c0-0.371-0.195-0.586-0.991-0.746c-0.841-0.17-1.181-0.455-1.181-0.986v-0.01
			c0-0.521,0.476-0.921,1.126-0.921c0.511,0,0.846,0.141,1.201,0.426l-0.165,0.205c-0.33-0.285-0.661-0.396-1.046-0.396
			c-0.516,0-0.856,0.295-0.856,0.661v0.01c0,0.37,0.19,0.596,1.021,0.766c0.811,0.165,1.151,0.455,1.151,0.966v0.01
			C126.047,60.336,125.561,60.726,124.886,60.726z"/>
		<path d="M133.406,57.412v3.264h-0.261v-3.264h-1.221v-0.24h2.702v0.24H133.406z"/>
		<path d="M148.78,60.676h-1.166v-3.504h1.166c1.102,0,1.862,0.756,1.862,1.742v0.01C150.643,59.91,149.882,60.676,148.78,60.676z
			 M150.372,58.924c0-0.83-0.616-1.512-1.592-1.512h-0.905v3.023h0.905c0.976,0,1.592-0.666,1.592-1.502V58.924z"/>
		<path d="M156.909,60.676v-3.504h0.26v3.504H156.909z"/>
		<path d="M165.201,60.736c-1.105,0-1.762-0.816-1.762-1.803v-0.01c0-0.945,0.686-1.812,1.731-1.812c0.571,0,0.932,0.17,1.281,0.46
			l-0.17,0.195c-0.275-0.24-0.596-0.42-1.126-0.42c-0.851,0-1.446,0.721-1.446,1.566v0.01c0,0.906,0.565,1.582,1.501,1.582
			c0.445,0,0.861-0.186,1.116-0.4V59.1h-1.171v-0.24h1.422v1.351C166.263,60.49,165.771,60.736,165.201,60.736z"/>
		<path d="M172.899,60.676v-3.504h0.26v3.504H172.899z"/>
		<path d="M180.815,57.412v3.264h-0.261v-3.264h-1.221v-0.24h2.702v0.24H180.815z"/>
		<path d="M190.652,60.676l-0.445-0.98h-2.067l-0.445,0.98h-0.271l1.632-3.528h0.251l1.631,3.528H190.652z M189.176,57.433
			l-0.926,2.027h1.847L189.176,57.433z"/>
		<path d="M197.024,60.676v-3.504h0.261v3.264h2.057v0.24H197.024z"/>
		<path d="M213.525,59.369h-0.945v1.307h-0.261v-3.504h1.271c0.771,0,1.301,0.396,1.301,1.071v0.011
			C214.892,58.989,214.256,59.369,213.525,59.369z M214.632,58.259c0-0.556-0.431-0.847-1.062-0.847h-0.99v1.717h0.961
			c0.65,0,1.091-0.34,1.091-0.86V58.259z"/>
		<path d="M223.587,60.676l-0.445-0.98h-2.067l-0.445,0.98h-0.27l1.631-3.528h0.25l1.632,3.528H223.587z M222.11,57.433
			l-0.926,2.027h1.847L222.11,57.433z"/>
		<path d="M232.481,60.676l-1.116-1.451h-1.146v1.451h-0.26v-3.504h1.472c0.756,0,1.251,0.411,1.251,0.996v0.011
			c0,0.585-0.436,0.921-1.026,1.001l1.156,1.496H232.481z M232.422,58.179c0-0.471-0.371-0.767-1.007-0.767h-1.196v1.577h1.182
			c0.586,0,1.021-0.296,1.021-0.801V58.179z"/>
		<path d="M240.105,57.412v3.264h-0.261v-3.264h-1.221v-0.24h2.702v0.24H240.105z"/>
		<path d="M250.182,60.676l-2.468-3.113v3.113h-0.25v-3.504h0.245l2.418,3.049v-3.049h0.25v3.504H250.182z"/>
		<path d="M256.764,60.676v-3.504h2.492v0.24h-2.232v1.377h2.008v0.24h-2.008v1.406h2.258v0.24H256.764z"/>
		<path d="M267.986,60.676l-1.116-1.451h-1.146v1.451h-0.261v-3.504h1.472c0.756,0,1.251,0.411,1.251,0.996v0.011
			c0,0.585-0.436,0.921-1.026,1.001l1.156,1.496H267.986z M267.926,58.179c0-0.471-0.37-0.767-1.006-0.767h-1.195v1.577h1.181
			c0.586,0,1.021-0.296,1.021-0.801V58.179z"/>
	</g>
</g>
</svg>
