<?xml version="1.0" encoding="utf-8"?>
<!-- Generator: Adobe Illustrator 16.0.0, SVG Export Plug-In . SVG Version: 6.00 Build 0)  -->
<!DOCTYPE svg PUBLIC "-//W3C//DTD SVG 1.1//EN" "http://www.w3.org/Graphics/SVG/1.1/DTD/svg11.dtd">
<svg version="1.1" id="Layer_1" xmlns="http://www.w3.org/2000/svg" xmlns:xlink="http://www.w3.org/1999/xlink" x="0px" y="0px"
	 width="273.908px" height="66.693px" viewBox="0 0 273.908 66.693" enable-background="new 0 0 273.908 66.693"
	 xml:space="preserve">
<g>
	<defs>
		<path id="SVGID_1_" d="M86.137,13.961c0,0,0,1.961,0,4.148c0,2.578,1.566,5.313,2.801,5.445c1.883,0.191,6.816,0.074,6.816,0.074
			v-5.277C95.754,18.352,95.496,13.566,86.137,13.961z"/>
	</defs>
	<clipPath id="SVGID_2_">
		<use xlink:href="#SVGID_1_"  overflow="visible"/>
	</clipPath>
	<g clip-path="url(#SVGID_2_)">
		
			<linearGradient id="SVGID_3_" gradientUnits="userSpaceOnUse" x1="98.8359" y1="-8.1548" x2="122.4267" y2="15.4359" gradientTransform="matrix(0.6598 0.7515 -0.7515 0.6598 25.6275 -50.6493)">
			<stop  offset="0" style="stop-color:#FFF33B"/>
			<stop  offset="0.0595" style="stop-color:#FFE029"/>
			<stop  offset="0.1303" style="stop-color:#FFD218"/>
			<stop  offset="0.2032" style="stop-color:#FEC90F"/>
			<stop  offset="0.2809" style="stop-color:#FDC70C"/>
			<stop  offset="0.6685" style="stop-color:#F3903F"/>
			<stop  offset="0.8876" style="stop-color:#ED683C"/>
			<stop  offset="1" style="stop-color:#E93E3A"/>
		</linearGradient>
		<path fill="url(#SVGID_3_)" d="M97.766,18.297c0,0-3.594,3.16-7.625,6.695c-4.719,4.148-7.23,11.453-5.484,13.914
			c2.672,3.785,10.871,12.679,10.871,12.679l9.699-8.523C105.227,43.062,113.598,34.844,97.766,18.297z"/>
		
			<linearGradient id="SVGID_4_" gradientUnits="userSpaceOnUse" x1="97.6348" y1="10.7476" x2="121.222" y2="34.3348" gradientTransform="matrix(0.8594 0.5113 -0.5113 0.8594 8.2843 -50.8335)">
			<stop  offset="0" style="stop-color:#F9ED32"/>
			<stop  offset="1" style="stop-color:#EC008C"/>
		</linearGradient>
		<path fill="url(#SVGID_4_)" d="M87.473,8.125c0,0-2.445,4.113-5.188,8.719c-3.211,5.406-3.348,13.129-0.93,14.926
			c3.715,2.777,14.25,8.707,14.25,8.707l6.602-11.101C102.207,29.375,107.633,18.98,87.473,8.125z"/>
		
			<linearGradient id="SVGID_5_" gradientUnits="userSpaceOnUse" x1="98.229" y1="22.9468" x2="114.23" y2="22.9468" gradientTransform="matrix(0.8788 0.782 -0.7184 1.009 12.7318 -62.1668)">
			<stop  offset="0" style="stop-color:#662D91"/>
			<stop  offset="1" style="stop-color:#27AAE1"/>
		</linearGradient>
		<path fill="url(#SVGID_5_)" d="M84.27,35.414c0,0-0.324,2.996-0.695,6.339c-0.426,3.933,1.242,8.355,2.883,8.738
			c2.52,0.586,9.242,1.133,9.242,1.133l0.879-8.074C96.578,43.55,97.02,36.195,84.27,35.414z"/>
		
			<linearGradient id="SVGID_6_" gradientUnits="userSpaceOnUse" x1="67.751" y1="-59.9634" x2="79.1372" y2="-48.5772" gradientTransform="matrix(-0.5877 0.8091 -0.8091 -0.5877 102.6086 -52.4034)">
			<stop  offset="0" style="stop-color:#FFF200"/>
			<stop  offset="0.3565" style="stop-color:#AFC67B"/>
			<stop  offset="1" style="stop-color:#008FD5"/>
		</linearGradient>
		<path fill="url(#SVGID_6_)" d="M111.371,38.039c0,0-1.867-1.359-3.965-2.882c-2.453-1.785-6.16-2.191-7.133-1.102
			c-1.5,1.66-4.813,6.464-4.813,6.464l5.039,3.66C100.5,44.179,105.258,47.257,111.371,38.039z"/>
	</g>
</g>
<g>
	<defs>
		<path id="SVGID_7_" d="M86.137,49.397c0,0,0-4.738,0-10.031c0-6.214,1.566-12.843,2.801-13.164c1.883-0.469,6.816-0.18,6.816-0.18
			v12.761C95.754,38.785,95.496,50.358,86.137,49.397z"/>
	</defs>
	<clipPath id="SVGID_8_">
		<use xlink:href="#SVGID_7_"  overflow="visible"/>
	</clipPath>
	<g clip-path="url(#SVGID_8_)">
		
			<linearGradient id="SVGID_9_" gradientUnits="userSpaceOnUse" x1="98.8359" y1="-8.1548" x2="122.4267" y2="15.4359" gradientTransform="matrix(0.6598 0.7515 -0.7515 0.6598 25.6275 -50.6493)">
			<stop  offset="0" style="stop-color:#FFF33B"/>
			<stop  offset="0.0595" style="stop-color:#FFE029"/>
			<stop  offset="0.1303" style="stop-color:#FFD218"/>
			<stop  offset="0.2032" style="stop-color:#FEC90F"/>
			<stop  offset="0.2809" style="stop-color:#FDC70C"/>
			<stop  offset="0.6685" style="stop-color:#F3903F"/>
			<stop  offset="0.8876" style="stop-color:#ED683C"/>
			<stop  offset="1" style="stop-color:#E93E3A"/>
		</linearGradient>
		<path fill="url(#SVGID_9_)" d="M97.766,18.297c0,0-3.594,3.16-7.625,6.695c-4.719,4.148-7.23,11.453-5.484,13.914
			c2.672,3.785,10.871,12.679,10.871,12.679l9.699-8.523C105.227,43.062,113.598,34.844,97.766,18.297z"/>
		
			<linearGradient id="SVGID_10_" gradientUnits="userSpaceOnUse" x1="97.6348" y1="10.7476" x2="121.222" y2="34.3348" gradientTransform="matrix(0.8594 0.5113 -0.5113 0.8594 8.2843 -50.8335)">
			<stop  offset="0" style="stop-color:#F9ED32"/>
			<stop  offset="1" style="stop-color:#EC008C"/>
		</linearGradient>
		<path fill="url(#SVGID_10_)" d="M87.473,8.125c0,0-2.445,4.113-5.188,8.719c-3.211,5.406-3.348,13.129-0.93,14.926
			c3.715,2.777,14.25,8.707,14.25,8.707l6.602-11.101C102.207,29.375,107.633,18.98,87.473,8.125z"/>
		
			<linearGradient id="SVGID_11_" gradientUnits="userSpaceOnUse" x1="98.229" y1="22.9468" x2="114.23" y2="22.9468" gradientTransform="matrix(0.8788 0.782 -0.7184 1.009 12.7318 -62.1668)">
			<stop  offset="0" style="stop-color:#662D91"/>
			<stop  offset="1" style="stop-color:#27AAE1"/>
		</linearGradient>
		<path fill="url(#SVGID_11_)" d="M84.27,35.414c0,0-0.324,2.996-0.695,6.339c-0.426,3.933,1.242,8.355,2.883,8.738
			c2.52,0.586,9.242,1.133,9.242,1.133l0.879-8.074C96.578,43.55,97.02,36.195,84.27,35.414z"/>
		
			<linearGradient id="SVGID_12_" gradientUnits="userSpaceOnUse" x1="67.751" y1="-59.9634" x2="79.1372" y2="-48.5772" gradientTransform="matrix(-0.5877 0.8091 -0.8091 -0.5877 102.6086 -52.4034)">
			<stop  offset="0" style="stop-color:#FFF200"/>
			<stop  offset="0.3565" style="stop-color:#AFC67B"/>
			<stop  offset="1" style="stop-color:#008FD5"/>
		</linearGradient>
		<path fill="url(#SVGID_12_)" d="M111.371,38.039c0,0-1.867-1.359-3.965-2.882c-2.453-1.785-6.16-2.191-7.133-1.102
			c-1.5,1.66-4.813,6.464-4.813,6.464l5.039,3.66C100.5,44.179,105.258,47.257,111.371,38.039z"/>
	</g>
</g>
<g>
	<defs>
		<path id="SVGID_13_" d="M108.996,13.961c0,0,0,1.961,0,4.148c0,2.578-1.563,5.313-2.797,5.445
			c-1.883,0.191-6.824,0.074-6.824,0.074v-5.277C99.375,18.352,99.637,13.566,108.996,13.961z"/>
	</defs>
	<clipPath id="SVGID_14_">
		<use xlink:href="#SVGID_13_"  overflow="visible"/>
	</clipPath>
	<g clip-path="url(#SVGID_14_)">
		
			<linearGradient id="SVGID_15_" gradientUnits="userSpaceOnUse" x1="65.9531" y1="-63.8843" x2="89.5397" y2="-40.2977" gradientTransform="matrix(0.551 -0.8345 -0.8345 -0.551 22.7498 62.4189)">
			<stop  offset="0" style="stop-color:#FFF33B"/>
			<stop  offset="0.0595" style="stop-color:#FFE029"/>
			<stop  offset="0.1303" style="stop-color:#FFD218"/>
			<stop  offset="0.2032" style="stop-color:#FEC90F"/>
			<stop  offset="0.2809" style="stop-color:#FDC70C"/>
			<stop  offset="0.6685" style="stop-color:#F3903F"/>
			<stop  offset="0.8876" style="stop-color:#ED683C"/>
			<stop  offset="1" style="stop-color:#E93E3A"/>
		</linearGradient>
		<path fill="url(#SVGID_15_)" d="M113.184,42.421c0,0-3.992-2.641-8.465-5.59c-5.242-3.464-8.73-10.359-7.336-13.035
			c2.133-4.117,9.039-14.039,9.039-14.039l10.773,7.109C117.195,16.867,126.609,23.867,113.184,42.421z"/>
		
			<linearGradient id="SVGID_16_" gradientUnits="userSpaceOnUse" x1="82.5918" y1="-52.6362" x2="106.1818" y2="-29.0462" gradientTransform="matrix(0.7816 -0.6238 -0.6238 -0.7816 6.1903 64.1949)">
			<stop  offset="0" style="stop-color:#F9ED32"/>
			<stop  offset="1" style="stop-color:#EC008C"/>
		</linearGradient>
		<path fill="url(#SVGID_16_)" d="M104.375,53.905c0,0-2.984-3.742-6.328-7.93c-3.922-4.91-5.109-12.546-2.957-14.659
			c3.297-3.258,12.926-10.574,12.926-10.574l8.055,10.102C116.07,30.844,122.863,40.398,104.375,53.905z"/>
		
			<linearGradient id="SVGID_17_" gradientUnits="userSpaceOnUse" x1="81.1992" y1="-25.9668" x2="97.1968" y2="-25.9668" gradientTransform="matrix(0.7638 -0.8947 -0.8494 -0.9015 11.3957 74.4117)">
			<stop  offset="0" style="stop-color:#662D91"/>
			<stop  offset="1" style="stop-color:#27AAE1"/>
		</linearGradient>
		<path fill="url(#SVGID_17_)" d="M97.48,27.305c0,0-0.738-2.918-1.559-6.18c-0.957-3.836,0.094-8.453,1.668-9.055
			c2.414-0.914,8.996-2.383,8.996-2.383l1.977,7.883C108.563,17.57,110,24.797,97.48,27.305z"/>
		
			<linearGradient id="SVGID_18_" gradientUnits="userSpaceOnUse" x1="6.1045" y1="-39.1538" x2="17.4921" y2="-27.7662" gradientTransform="matrix(-0.6926 -0.7213 -0.7213 0.6926 99.9432 52.919)">
			<stop  offset="0" style="stop-color:#FFF200"/>
			<stop  offset="0.3565" style="stop-color:#AFC67B"/>
			<stop  offset="1" style="stop-color:#008FD5"/>
		</linearGradient>
		<path fill="url(#SVGID_18_)" d="M123.965,21.008c0,0-1.664,1.602-3.531,3.398c-2.191,2.102-5.805,3.008-6.918,2.066
			c-1.711-1.441-5.652-5.746-5.652-5.746l4.496-4.32C112.359,16.406,116.656,12.719,123.965,21.008z"/>
	</g>
</g>
<g>
	<defs>
		<path id="SVGID_19_" d="M108.996,49.397c0,0,0-4.738,0-10.031c0-6.214-1.563-12.843-2.797-13.164
			c-1.883-0.469-6.824-0.18-6.824-0.18v12.761C99.375,38.785,99.637,50.358,108.996,49.397z"/>
	</defs>
	<clipPath id="SVGID_20_">
		<use xlink:href="#SVGID_19_"  overflow="visible"/>
	</clipPath>
	<g clip-path="url(#SVGID_20_)">
		
			<linearGradient id="SVGID_21_" gradientUnits="userSpaceOnUse" x1="65.9531" y1="-63.8843" x2="89.5397" y2="-40.2977" gradientTransform="matrix(0.551 -0.8345 -0.8345 -0.551 22.7498 62.4189)">
			<stop  offset="0" style="stop-color:#FFF33B"/>
			<stop  offset="0.0595" style="stop-color:#FFE029"/>
			<stop  offset="0.1303" style="stop-color:#FFD218"/>
			<stop  offset="0.2032" style="stop-color:#FEC90F"/>
			<stop  offset="0.2809" style="stop-color:#FDC70C"/>
			<stop  offset="0.6685" style="stop-color:#F3903F"/>
			<stop  offset="0.8876" style="stop-color:#ED683C"/>
			<stop  offset="1" style="stop-color:#E93E3A"/>
		</linearGradient>
		<path fill="url(#SVGID_21_)" d="M113.184,42.421c0,0-3.992-2.641-8.465-5.59c-5.242-3.464-8.73-10.359-7.336-13.035
			c2.133-4.117,9.039-14.039,9.039-14.039l10.773,7.109C117.195,16.867,126.609,23.867,113.184,42.421z"/>
		
			<linearGradient id="SVGID_22_" gradientUnits="userSpaceOnUse" x1="82.5918" y1="-52.6362" x2="106.1818" y2="-29.0462" gradientTransform="matrix(0.7816 -0.6238 -0.6238 -0.7816 6.1903 64.1949)">
			<stop  offset="0" style="stop-color:#F9ED32"/>
			<stop  offset="1" style="stop-color:#EC008C"/>
		</linearGradient>
		<path fill="url(#SVGID_22_)" d="M104.375,53.905c0,0-2.984-3.742-6.328-7.93c-3.922-4.91-5.109-12.546-2.957-14.659
			c3.297-3.258,12.926-10.574,12.926-10.574l8.055,10.102C116.07,30.844,122.863,40.398,104.375,53.905z"/>
		
			<linearGradient id="SVGID_23_" gradientUnits="userSpaceOnUse" x1="81.1992" y1="-25.9668" x2="97.1968" y2="-25.9668" gradientTransform="matrix(0.7638 -0.8947 -0.8494 -0.9015 11.3957 74.4117)">
			<stop  offset="0" style="stop-color:#662D91"/>
			<stop  offset="1" style="stop-color:#27AAE1"/>
		</linearGradient>
		<path fill="url(#SVGID_23_)" d="M97.48,27.305c0,0-0.738-2.918-1.559-6.18c-0.957-3.836,0.094-8.453,1.668-9.055
			c2.414-0.914,8.996-2.383,8.996-2.383l1.977,7.883C108.563,17.57,110,24.797,97.48,27.305z"/>
		
			<linearGradient id="SVGID_24_" gradientUnits="userSpaceOnUse" x1="6.1045" y1="-39.1538" x2="17.4921" y2="-27.7662" gradientTransform="matrix(-0.6926 -0.7213 -0.7213 0.6926 99.9432 52.919)">
			<stop  offset="0" style="stop-color:#FFF200"/>
			<stop  offset="0.3565" style="stop-color:#AFC67B"/>
			<stop  offset="1" style="stop-color:#008FD5"/>
		</linearGradient>
		<path fill="url(#SVGID_24_)" d="M123.965,21.008c0,0-1.664,1.602-3.531,3.398c-2.191,2.102-5.805,3.008-6.918,2.066
			c-1.711-1.441-5.652-5.746-5.652-5.746l4.496-4.32C112.359,16.406,116.656,12.719,123.965,21.008z"/>
	</g>
</g>
<g>
	<defs>
		<path id="SVGID_25_" d="M59.289,49.452h-7.883V14.141h7.883v13.813h13.758V14.141h7.934v35.312h-7.934V35.547H59.289V49.452z"/>
	</defs>
	<clipPath id="SVGID_26_">
		<use xlink:href="#SVGID_25_"  overflow="visible"/>
	</clipPath>
	<g clip-path="url(#SVGID_26_)">
		
			<linearGradient id="SVGID_27_" gradientUnits="userSpaceOnUse" x1="67.4585" y1="2.6885" x2="107.3251" y2="42.5551" gradientTransform="matrix(0.7525 0.6586 -0.6586 0.7525 19.0913 -43.2055)">
			<stop  offset="0" style="stop-color:#FFF33B"/>
			<stop  offset="0.0595" style="stop-color:#FFE029"/>
			<stop  offset="0.1303" style="stop-color:#FFD218"/>
			<stop  offset="0.2032" style="stop-color:#FEC90F"/>
			<stop  offset="0.2809" style="stop-color:#FDC70C"/>
			<stop  offset="0.6685" style="stop-color:#F3903F"/>
			<stop  offset="0.8876" style="stop-color:#ED683C"/>
			<stop  offset="1" style="stop-color:#E93E3A"/>
		</linearGradient>
		<path fill="url(#SVGID_27_)" d="M69.434,3.156c0,0-5.324,6.09-11.297,12.895c-6.992,8.004-9.586,20.796-6.113,24.535
			c5.32,5.753,21.02,18.835,21.02,18.835l14.371-16.422C87.414,42.999,99.621,27.379,69.434,3.156z"/>
		
			<linearGradient id="SVGID_28_" gradientUnits="userSpaceOnUse" x1="53.8628" y1="9.041" x2="93.7308" y2="48.909" gradientTransform="matrix(0.919 0.3943 -0.3943 0.919 2.735 -40.66)">
			<stop  offset="0" style="stop-color:#F9ED32"/>
			<stop  offset="1" style="stop-color:#EC008C"/>
		</linearGradient>
		<path fill="url(#SVGID_28_)" d="M49.93-11.617c0,0-3.188,7.438-6.762,15.758c-4.191,9.762-2.707,22.734,1.746,25.227
			c6.836,3.824,25.805,11.425,25.805,11.425l8.605-20.058C79.324,20.734,86.117,2.117,49.93-11.617z"/>
		
			<linearGradient id="SVGID_29_" gradientUnits="userSpaceOnUse" x1="69.835" y1="41.3774" x2="96.8828" y2="41.3774" gradientTransform="matrix(0.9736 0.6602 -0.5801 1.0944 4.2967 -52.1945)">
			<stop  offset="0" style="stop-color:#662D91"/>
			<stop  offset="1" style="stop-color:#27AAE1"/>
		</linearGradient>
		<path fill="url(#SVGID_29_)" d="M50.605,34.816c0,0,0.113,5.097,0.234,10.784c0.16,6.688,3.934,13.73,6.77,13.996
			c4.352,0.426,15.738-0.148,15.738-0.148l-0.316-13.719C73.031,45.729,72.141,33.305,50.605,34.816z"/>
		
			<linearGradient id="SVGID_30_" gradientUnits="userSpaceOnUse" x1="76.1001" y1="-41.6484" x2="95.3494" y2="-22.3991" gradientTransform="matrix(-0.4766 0.8791 -0.8791 -0.4766 96.0666 -54.1594)">
			<stop  offset="0" style="stop-color:#FFF200"/>
			<stop  offset="0.3565" style="stop-color:#AFC67B"/>
			<stop  offset="1" style="stop-color:#008FD5"/>
		</linearGradient>
		<path fill="url(#SVGID_30_)" d="M96.598,33.219c0,0-3.434-1.859-7.277-3.949c-4.508-2.445-10.813-2.305-12.203-0.27
			c-2.145,3.121-6.637,11.898-6.637,11.898l9.258,5.027C79.738,45.925,88.398,50.015,96.598,33.219z"/>
	</g>
</g>
<g opacity="0.8">
	<g>
		<defs>
			<path id="SVGID_31_" d="M86.137,13.961c0,0,0,1.961,0,4.148c0,2.578,1.566,5.313,2.801,5.445
				c1.883,0.191,6.816,0.074,6.816,0.074v-5.277C95.754,18.352,95.496,13.566,86.137,13.961z"/>
		</defs>
		<clipPath id="SVGID_32_">
			<use xlink:href="#SVGID_31_"  overflow="visible"/>
		</clipPath>
		<g clip-path="url(#SVGID_32_)">
			
				<linearGradient id="SVGID_33_" gradientUnits="userSpaceOnUse" x1="98.8359" y1="-8.1548" x2="122.4267" y2="15.4359" gradientTransform="matrix(0.6598 0.7515 -0.7515 0.6598 25.6275 -50.6493)">
				<stop  offset="0" style="stop-color:#FFF33B"/>
				<stop  offset="0.0595" style="stop-color:#FFE029"/>
				<stop  offset="0.1303" style="stop-color:#FFD218"/>
				<stop  offset="0.2032" style="stop-color:#FEC90F"/>
				<stop  offset="0.2809" style="stop-color:#FDC70C"/>
				<stop  offset="0.6685" style="stop-color:#F3903F"/>
				<stop  offset="0.8876" style="stop-color:#ED683C"/>
				<stop  offset="1" style="stop-color:#E93E3A"/>
			</linearGradient>
			<path fill="url(#SVGID_33_)" d="M97.766,18.297c0,0-3.594,3.16-7.625,6.695c-4.719,4.148-7.23,11.453-5.484,13.914
				c2.672,3.785,10.871,12.679,10.871,12.679l9.699-8.523C105.227,43.062,113.598,34.844,97.766,18.297z"/>
			
				<linearGradient id="SVGID_34_" gradientUnits="userSpaceOnUse" x1="97.6348" y1="10.7476" x2="121.222" y2="34.3348" gradientTransform="matrix(0.8594 0.5113 -0.5113 0.8594 8.2843 -50.8335)">
				<stop  offset="0" style="stop-color:#F9ED32"/>
				<stop  offset="1" style="stop-color:#EC008C"/>
			</linearGradient>
			<path fill="url(#SVGID_34_)" d="M87.473,8.125c0,0-2.445,4.113-5.188,8.719c-3.211,5.406-3.348,13.129-0.93,14.926
				c3.715,2.777,14.25,8.707,14.25,8.707l6.602-11.101C102.207,29.375,107.633,18.98,87.473,8.125z"/>
			
				<linearGradient id="SVGID_35_" gradientUnits="userSpaceOnUse" x1="98.229" y1="22.9468" x2="114.23" y2="22.9468" gradientTransform="matrix(0.8788 0.782 -0.7184 1.009 12.7318 -62.1668)">
				<stop  offset="0" style="stop-color:#662D91"/>
				<stop  offset="1" style="stop-color:#27AAE1"/>
			</linearGradient>
			<path fill="url(#SVGID_35_)" d="M84.27,35.414c0,0-0.324,2.996-0.695,6.339c-0.426,3.933,1.242,8.355,2.883,8.738
				c2.52,0.586,9.242,1.133,9.242,1.133l0.879-8.074C96.578,43.55,97.02,36.195,84.27,35.414z"/>
			
				<linearGradient id="SVGID_36_" gradientUnits="userSpaceOnUse" x1="67.751" y1="-59.9634" x2="79.1372" y2="-48.5772" gradientTransform="matrix(-0.5877 0.8091 -0.8091 -0.5877 102.6086 -52.4034)">
				<stop  offset="0" style="stop-color:#FFF200"/>
				<stop  offset="0.3565" style="stop-color:#AFC67B"/>
				<stop  offset="1" style="stop-color:#008FD5"/>
			</linearGradient>
			<path fill="url(#SVGID_36_)" d="M111.371,38.039c0,0-1.867-1.359-3.965-2.882c-2.453-1.785-6.16-2.191-7.133-1.102
				c-1.5,1.66-4.813,6.464-4.813,6.464l5.039,3.66C100.5,44.179,105.258,47.257,111.371,38.039z"/>
		</g>
	</g>
	<g>
		<defs>
			<path id="SVGID_37_" d="M86.137,49.397c0,0,0-4.738,0-10.031c0-6.214,1.566-12.843,2.801-13.164
				c1.883-0.469,6.816-0.18,6.816-0.18v12.761C95.754,38.785,95.496,50.358,86.137,49.397z"/>
		</defs>
		<clipPath id="SVGID_38_">
			<use xlink:href="#SVGID_37_"  overflow="visible"/>
		</clipPath>
		<g clip-path="url(#SVGID_38_)">
			
				<linearGradient id="SVGID_39_" gradientUnits="userSpaceOnUse" x1="98.8359" y1="-8.1548" x2="122.4267" y2="15.4359" gradientTransform="matrix(0.6598 0.7515 -0.7515 0.6598 25.6275 -50.6493)">
				<stop  offset="0" style="stop-color:#FFF33B"/>
				<stop  offset="0.0595" style="stop-color:#FFE029"/>
				<stop  offset="0.1303" style="stop-color:#FFD218"/>
				<stop  offset="0.2032" style="stop-color:#FEC90F"/>
				<stop  offset="0.2809" style="stop-color:#FDC70C"/>
				<stop  offset="0.6685" style="stop-color:#F3903F"/>
				<stop  offset="0.8876" style="stop-color:#ED683C"/>
				<stop  offset="1" style="stop-color:#E93E3A"/>
			</linearGradient>
			<path fill="url(#SVGID_39_)" d="M97.766,18.297c0,0-3.594,3.16-7.625,6.695c-4.719,4.148-7.23,11.453-5.484,13.914
				c2.672,3.785,10.871,12.679,10.871,12.679l9.699-8.523C105.227,43.062,113.598,34.844,97.766,18.297z"/>
			
				<linearGradient id="SVGID_40_" gradientUnits="userSpaceOnUse" x1="97.6348" y1="10.7476" x2="121.222" y2="34.3348" gradientTransform="matrix(0.8594 0.5113 -0.5113 0.8594 8.2843 -50.8335)">
				<stop  offset="0" style="stop-color:#F9ED32"/>
				<stop  offset="1" style="stop-color:#EC008C"/>
			</linearGradient>
			<path fill="url(#SVGID_40_)" d="M87.473,8.125c0,0-2.445,4.113-5.188,8.719c-3.211,5.406-3.348,13.129-0.93,14.926
				c3.715,2.777,14.25,8.707,14.25,8.707l6.602-11.101C102.207,29.375,107.633,18.98,87.473,8.125z"/>
			
				<linearGradient id="SVGID_41_" gradientUnits="userSpaceOnUse" x1="98.229" y1="22.9468" x2="114.23" y2="22.9468" gradientTransform="matrix(0.8788 0.782 -0.7184 1.009 12.7318 -62.1668)">
				<stop  offset="0" style="stop-color:#662D91"/>
				<stop  offset="1" style="stop-color:#27AAE1"/>
			</linearGradient>
			<path fill="url(#SVGID_41_)" d="M84.27,35.414c0,0-0.324,2.996-0.695,6.339c-0.426,3.933,1.242,8.355,2.883,8.738
				c2.52,0.586,9.242,1.133,9.242,1.133l0.879-8.074C96.578,43.55,97.02,36.195,84.27,35.414z"/>
			
				<linearGradient id="SVGID_42_" gradientUnits="userSpaceOnUse" x1="67.751" y1="-59.9634" x2="79.1372" y2="-48.5772" gradientTransform="matrix(-0.5877 0.8091 -0.8091 -0.5877 102.6086 -52.4034)">
				<stop  offset="0" style="stop-color:#FFF200"/>
				<stop  offset="0.3565" style="stop-color:#AFC67B"/>
				<stop  offset="1" style="stop-color:#008FD5"/>
			</linearGradient>
			<path fill="url(#SVGID_42_)" d="M111.371,38.039c0,0-1.867-1.359-3.965-2.882c-2.453-1.785-6.16-2.191-7.133-1.102
				c-1.5,1.66-4.813,6.464-4.813,6.464l5.039,3.66C100.5,44.179,105.258,47.257,111.371,38.039z"/>
		</g>
	</g>
	<g>
		<defs>
			<path id="SVGID_43_" d="M108.996,13.961c0,0,0,1.961,0,4.148c0,2.578-1.563,5.313-2.797,5.445
				c-1.883,0.191-6.824,0.074-6.824,0.074v-5.277C99.375,18.352,99.637,13.566,108.996,13.961z"/>
		</defs>
		<clipPath id="SVGID_44_">
			<use xlink:href="#SVGID_43_"  overflow="visible"/>
		</clipPath>
		<g clip-path="url(#SVGID_44_)">
			
				<linearGradient id="SVGID_45_" gradientUnits="userSpaceOnUse" x1="65.9531" y1="-63.8843" x2="89.5397" y2="-40.2977" gradientTransform="matrix(0.551 -0.8345 -0.8345 -0.551 22.7498 62.4189)">
				<stop  offset="0" style="stop-color:#FFF33B"/>
				<stop  offset="0.0595" style="stop-color:#FFE029"/>
				<stop  offset="0.1303" style="stop-color:#FFD218"/>
				<stop  offset="0.2032" style="stop-color:#FEC90F"/>
				<stop  offset="0.2809" style="stop-color:#FDC70C"/>
				<stop  offset="0.6685" style="stop-color:#F3903F"/>
				<stop  offset="0.8876" style="stop-color:#ED683C"/>
				<stop  offset="1" style="stop-color:#E93E3A"/>
			</linearGradient>
			<path fill="url(#SVGID_45_)" d="M113.184,42.421c0,0-3.992-2.641-8.465-5.59c-5.242-3.464-8.73-10.359-7.336-13.035
				c2.133-4.117,9.039-14.039,9.039-14.039l10.773,7.109C117.195,16.867,126.609,23.867,113.184,42.421z"/>
			
				<linearGradient id="SVGID_46_" gradientUnits="userSpaceOnUse" x1="82.5918" y1="-52.6362" x2="106.1818" y2="-29.0462" gradientTransform="matrix(0.7816 -0.6238 -0.6238 -0.7816 6.1903 64.1949)">
				<stop  offset="0" style="stop-color:#F9ED32"/>
				<stop  offset="1" style="stop-color:#EC008C"/>
			</linearGradient>
			<path fill="url(#SVGID_46_)" d="M104.375,53.905c0,0-2.984-3.742-6.328-7.93c-3.922-4.91-5.109-12.546-2.957-14.659
				c3.297-3.258,12.926-10.574,12.926-10.574l8.055,10.102C116.07,30.844,122.863,40.398,104.375,53.905z"/>
			
				<linearGradient id="SVGID_47_" gradientUnits="userSpaceOnUse" x1="81.1992" y1="-25.9668" x2="97.1968" y2="-25.9668" gradientTransform="matrix(0.7638 -0.8947 -0.8494 -0.9015 11.3957 74.4117)">
				<stop  offset="0" style="stop-color:#662D91"/>
				<stop  offset="1" style="stop-color:#27AAE1"/>
			</linearGradient>
			<path fill="url(#SVGID_47_)" d="M97.48,27.305c0,0-0.738-2.918-1.559-6.18c-0.957-3.836,0.094-8.453,1.668-9.055
				c2.414-0.914,8.996-2.383,8.996-2.383l1.977,7.883C108.563,17.57,110,24.797,97.48,27.305z"/>
			
				<linearGradient id="SVGID_48_" gradientUnits="userSpaceOnUse" x1="6.1045" y1="-39.1538" x2="17.4921" y2="-27.7662" gradientTransform="matrix(-0.6926 -0.7213 -0.7213 0.6926 99.9432 52.919)">
				<stop  offset="0" style="stop-color:#FFF200"/>
				<stop  offset="0.3565" style="stop-color:#AFC67B"/>
				<stop  offset="1" style="stop-color:#008FD5"/>
			</linearGradient>
			<path fill="url(#SVGID_48_)" d="M123.965,21.008c0,0-1.664,1.602-3.531,3.398c-2.191,2.102-5.805,3.008-6.918,2.066
				c-1.711-1.441-5.652-5.746-5.652-5.746l4.496-4.32C112.359,16.406,116.656,12.719,123.965,21.008z"/>
		</g>
	</g>
	<g>
		<defs>
			<path id="SVGID_49_" d="M108.996,49.397c0,0,0-4.738,0-10.031c0-6.214-1.563-12.843-2.797-13.164
				c-1.883-0.469-6.824-0.18-6.824-0.18v12.761C99.375,38.785,99.637,50.358,108.996,49.397z"/>
		</defs>
		<clipPath id="SVGID_50_">
			<use xlink:href="#SVGID_49_"  overflow="visible"/>
		</clipPath>
		<g clip-path="url(#SVGID_50_)">
			
				<linearGradient id="SVGID_51_" gradientUnits="userSpaceOnUse" x1="65.9531" y1="-63.8843" x2="89.5397" y2="-40.2977" gradientTransform="matrix(0.551 -0.8345 -0.8345 -0.551 22.7498 62.4189)">
				<stop  offset="0" style="stop-color:#FFF33B"/>
				<stop  offset="0.0595" style="stop-color:#FFE029"/>
				<stop  offset="0.1303" style="stop-color:#FFD218"/>
				<stop  offset="0.2032" style="stop-color:#FEC90F"/>
				<stop  offset="0.2809" style="stop-color:#FDC70C"/>
				<stop  offset="0.6685" style="stop-color:#F3903F"/>
				<stop  offset="0.8876" style="stop-color:#ED683C"/>
				<stop  offset="1" style="stop-color:#E93E3A"/>
			</linearGradient>
			<path fill="url(#SVGID_51_)" d="M113.184,42.421c0,0-3.992-2.641-8.465-5.59c-5.242-3.464-8.73-10.359-7.336-13.035
				c2.133-4.117,9.039-14.039,9.039-14.039l10.773,7.109C117.195,16.867,126.609,23.867,113.184,42.421z"/>
			
				<linearGradient id="SVGID_52_" gradientUnits="userSpaceOnUse" x1="82.5918" y1="-52.6362" x2="106.1818" y2="-29.0462" gradientTransform="matrix(0.7816 -0.6238 -0.6238 -0.7816 6.1903 64.1949)">
				<stop  offset="0" style="stop-color:#F9ED32"/>
				<stop  offset="1" style="stop-color:#EC008C"/>
			</linearGradient>
			<path fill="url(#SVGID_52_)" d="M104.375,53.905c0,0-2.984-3.742-6.328-7.93c-3.922-4.91-5.109-12.546-2.957-14.659
				c3.297-3.258,12.926-10.574,12.926-10.574l8.055,10.102C116.07,30.844,122.863,40.398,104.375,53.905z"/>
			
				<linearGradient id="SVGID_53_" gradientUnits="userSpaceOnUse" x1="81.1992" y1="-25.9668" x2="97.1968" y2="-25.9668" gradientTransform="matrix(0.7638 -0.8947 -0.8494 -0.9015 11.3957 74.4117)">
				<stop  offset="0" style="stop-color:#662D91"/>
				<stop  offset="1" style="stop-color:#27AAE1"/>
			</linearGradient>
			<path fill="url(#SVGID_53_)" d="M97.48,27.305c0,0-0.738-2.918-1.559-6.18c-0.957-3.836,0.094-8.453,1.668-9.055
				c2.414-0.914,8.996-2.383,8.996-2.383l1.977,7.883C108.563,17.57,110,24.797,97.48,27.305z"/>
			
				<linearGradient id="SVGID_54_" gradientUnits="userSpaceOnUse" x1="6.1045" y1="-39.1538" x2="17.4921" y2="-27.7662" gradientTransform="matrix(-0.6926 -0.7213 -0.7213 0.6926 99.9432 52.919)">
				<stop  offset="0" style="stop-color:#FFF200"/>
				<stop  offset="0.3565" style="stop-color:#AFC67B"/>
				<stop  offset="1" style="stop-color:#008FD5"/>
			</linearGradient>
			<path fill="url(#SVGID_54_)" d="M123.965,21.008c0,0-1.664,1.602-3.531,3.398c-2.191,2.102-5.805,3.008-6.918,2.066
				c-1.711-1.441-5.652-5.746-5.652-5.746l4.496-4.32C112.359,16.406,116.656,12.719,123.965,21.008z"/>
		</g>
	</g>
	<g>
		<defs>
			<path id="SVGID_55_" d="M59.289,49.452h-7.883V14.141h7.883v13.813h13.758V14.141h7.934v35.312h-7.934V35.547H59.289V49.452z"/>
		</defs>
		<clipPath id="SVGID_56_">
			<use xlink:href="#SVGID_55_"  overflow="visible"/>
		</clipPath>
		<g clip-path="url(#SVGID_56_)">
			
				<linearGradient id="SVGID_57_" gradientUnits="userSpaceOnUse" x1="67.4585" y1="2.6885" x2="107.3251" y2="42.5551" gradientTransform="matrix(0.7525 0.6586 -0.6586 0.7525 19.0913 -43.2055)">
				<stop  offset="0" style="stop-color:#FFF33B"/>
				<stop  offset="0.0595" style="stop-color:#FFE029"/>
				<stop  offset="0.1303" style="stop-color:#FFD218"/>
				<stop  offset="0.2032" style="stop-color:#FEC90F"/>
				<stop  offset="0.2809" style="stop-color:#FDC70C"/>
				<stop  offset="0.6685" style="stop-color:#F3903F"/>
				<stop  offset="0.8876" style="stop-color:#ED683C"/>
				<stop  offset="1" style="stop-color:#E93E3A"/>
			</linearGradient>
			<path fill="url(#SVGID_57_)" d="M69.434,3.156c0,0-5.324,6.09-11.297,12.895c-6.992,8.004-9.586,20.796-6.113,24.535
				c5.32,5.753,21.02,18.835,21.02,18.835l14.371-16.422C87.414,42.999,99.621,27.379,69.434,3.156z"/>
			
				<linearGradient id="SVGID_58_" gradientUnits="userSpaceOnUse" x1="53.8628" y1="9.041" x2="93.7308" y2="48.909" gradientTransform="matrix(0.919 0.3943 -0.3943 0.919 2.735 -40.66)">
				<stop  offset="0" style="stop-color:#F9ED32"/>
				<stop  offset="1" style="stop-color:#EC008C"/>
			</linearGradient>
			<path fill="url(#SVGID_58_)" d="M49.93-11.617c0,0-3.188,7.438-6.762,15.758c-4.191,9.762-2.707,22.734,1.746,25.227
				c6.836,3.824,25.805,11.425,25.805,11.425l8.605-20.058C79.324,20.734,86.117,2.117,49.93-11.617z"/>
			
				<linearGradient id="SVGID_59_" gradientUnits="userSpaceOnUse" x1="69.835" y1="41.3774" x2="96.8828" y2="41.3774" gradientTransform="matrix(0.9736 0.6602 -0.5801 1.0944 4.2967 -52.1945)">
				<stop  offset="0" style="stop-color:#662D91"/>
				<stop  offset="1" style="stop-color:#27AAE1"/>
			</linearGradient>
			<path fill="url(#SVGID_59_)" d="M50.605,34.816c0,0,0.113,5.097,0.234,10.784c0.16,6.688,3.934,13.73,6.77,13.996
				c4.352,0.426,15.738-0.148,15.738-0.148l-0.316-13.719C73.031,45.729,72.141,33.305,50.605,34.816z"/>
			
				<linearGradient id="SVGID_60_" gradientUnits="userSpaceOnUse" x1="76.1001" y1="-41.6484" x2="95.3494" y2="-22.3991" gradientTransform="matrix(-0.4766 0.8791 -0.8791 -0.4766 96.0666 -54.1594)">
				<stop  offset="0" style="stop-color:#FFF200"/>
				<stop  offset="0.3565" style="stop-color:#AFC67B"/>
				<stop  offset="1" style="stop-color:#008FD5"/>
			</linearGradient>
			<path fill="url(#SVGID_60_)" d="M96.598,33.219c0,0-3.434-1.859-7.277-3.949c-4.508-2.445-10.813-2.305-12.203-0.27
				c-2.145,3.121-6.637,11.898-6.637,11.898l9.258,5.027C79.738,45.925,88.398,50.015,96.598,33.219z"/>
		</g>
	</g>
</g>
<g>
	<linearGradient id="SVGID_61_" gradientUnits="userSpaceOnUse" x1="-1.0898" y1="8.52" x2="44.2285" y2="53.8384">
		<stop  offset="0" style="stop-color:#FFF200"/>
		<stop  offset="0.3565" style="stop-color:#AFC67B"/>
		<stop  offset="1" style="stop-color:#008FD5"/>
	</linearGradient>
	<path fill="url(#SVGID_61_)" d="M0,7.43c0,0,0,9.195,0,19.492c0,12.07,7.363,24.96,13.129,25.565
		c8.855,0.926,32.078,0.371,32.078,0.371V28.055C45.207,28.055,43.953,5.555,0,7.43z"/>
	<linearGradient id="SVGID_62_" gradientUnits="userSpaceOnUse" x1="-1.0898" y1="8.52" x2="44.2285" y2="53.8384">
		<stop  offset="0" style="stop-color:#FFF200"/>
		<stop  offset="0.3565" style="stop-color:#AFC67B"/>
		<stop  offset="1" style="stop-color:#008FD5"/>
	</linearGradient>
	<path fill="url(#SVGID_62_)" d="M0,7.43c0,0,0,9.195,0,19.492c0,12.07,7.363,24.96,13.129,25.565
		c8.855,0.926,32.078,0.371,32.078,0.371V28.055C45.207,28.055,43.953,5.555,0,7.43z"/>
	
		<linearGradient id="SVGID_63_" gradientUnits="userSpaceOnUse" x1="2.1714" y1="8.0703" x2="47.4877" y2="53.3866" gradientTransform="matrix(0.9841 0.1778 -0.1778 0.9841 4.4935 -7.4482)">
		<stop  offset="0" style="stop-color:#FFF200"/>
		<stop  offset="0.3565" style="stop-color:#AFC67B"/>
		<stop  offset="1" style="stop-color:#008FD5"/>
	</linearGradient>
	<path fill="url(#SVGID_63_)" d="M6.465,0c0,0-1.637,9.055-3.473,19.188c-2.145,11.879,2.813,25.874,8.383,27.487
		c8.547,2.496,31.496,6.07,31.496,6.07l4.414-24.409C47.285,28.336,50.051,5.977,6.465,0z"/>
</g>
<text transform="matrix(1 0 0 1 112.5859 49.3477)" fill="#F26522" font-family="'Axiforma-ExtraBold'" font-size="47.7821">LABEL</text>
<text transform="matrix(1 0 0 1 53.2793 60.6758)" font-family="'Gotham-Light'" font-size="5" letter-spacing="5">YOUR TRUST DIGITAL PARTNER</text>
</svg>
