<?xml version="1.0" encoding="utf-8"?>
<!-- Generator: Adobe Illustrator 16.0.0, SVG Export Plug-In . SVG Version: 6.00 Build 0)  -->
<!DOCTYPE svg PUBLIC "-//W3C//DTD SVG 1.1//EN" "http://www.w3.org/Graphics/SVG/1.1/DTD/svg11.dtd">
<svg version="1.1" id="Layer_1" xmlns="http://www.w3.org/2000/svg" xmlns:xlink="http://www.w3.org/1999/xlink" x="0px" y="0px"
	 width="269.691px" height="60.735px" viewBox="0 0 269.691 60.735" enable-background="new 0 0 269.691 60.735"
	 xml:space="preserve">
<g>
	<g>
		<defs>
			<path id="SVGID_1_" d="M86.137,13.961c0,0,0,1.961,0,4.148c0,2.578,1.566,5.313,2.801,5.445c1.883,0.191,6.816,0.074,6.816,0.074
				v-5.277C95.754,18.352,95.496,13.566,86.137,13.961z"/>
		</defs>
		<clipPath id="SVGID_2_">
			<use xlink:href="#SVGID_1_"  overflow="visible"/>
		</clipPath>
		<g clip-path="url(#SVGID_2_)">
			
				<linearGradient id="SVGID_3_" gradientUnits="userSpaceOnUse" x1="110.9092" y1="-1.917" x2="134.4999" y2="21.6737" gradientTransform="matrix(0.6598 0.7515 -0.7515 0.6598 22.3493 -63.8383)">
				<stop  offset="0" style="stop-color:#FFF33B"/>
				<stop  offset="0.0595" style="stop-color:#FFE029"/>
				<stop  offset="0.1303" style="stop-color:#FFD218"/>
				<stop  offset="0.2032" style="stop-color:#FEC90F"/>
				<stop  offset="0.2809" style="stop-color:#FDC70C"/>
				<stop  offset="0.6685" style="stop-color:#F3903F"/>
				<stop  offset="0.8876" style="stop-color:#ED683C"/>
				<stop  offset="1" style="stop-color:#E93E3A"/>
			</linearGradient>
			<path fill="url(#SVGID_3_)" d="M97.766,18.297c0,0-3.594,3.16-7.625,6.695c-4.719,4.148-7.23,11.453-5.484,13.914
				c2.672,3.785,10.871,12.68,10.871,12.68l9.699-8.523C105.227,43.063,113.598,34.844,97.766,18.297z"/>
			
				<linearGradient id="SVGID_4_" gradientUnits="userSpaceOnUse" x1="104.6743" y1="15.9204" x2="128.2616" y2="39.5077" gradientTransform="matrix(0.8594 0.5113 -0.5113 0.8594 4.8795 -58.8785)">
				<stop  offset="0" style="stop-color:#F9ED32"/>
				<stop  offset="1" style="stop-color:#EC008C"/>
			</linearGradient>
			<path fill="url(#SVGID_4_)" d="M87.473,8.125c0,0-2.445,4.113-5.188,8.719c-3.211,5.406-3.348,13.129-0.93,14.926
				c3.715,2.777,14.25,8.707,14.25,8.707l6.602-11.102C102.207,29.375,107.633,18.98,87.473,8.125z"/>
			
				<linearGradient id="SVGID_5_" gradientUnits="userSpaceOnUse" x1="107.2158" y1="25.9082" x2="123.2178" y2="25.9082" gradientTransform="matrix(0.8788 0.782 -0.7184 1.009 6.9613 -72.1822)">
				<stop  offset="0" style="stop-color:#662D91"/>
				<stop  offset="1" style="stop-color:#27AAE1"/>
			</linearGradient>
			<path fill="url(#SVGID_5_)" d="M84.27,35.414c0,0-0.324,2.996-0.695,6.34c-0.426,3.934,1.242,8.355,2.883,8.738
				c2.52,0.586,9.242,1.133,9.242,1.133l0.879-8.074C96.578,43.551,97.02,36.195,84.27,35.414z"/>
			
				<linearGradient id="SVGID_6_" gradientUnits="userSpaceOnUse" x1="96.5376" y1="-65.7222" x2="107.9238" y2="-54.336" gradientTransform="matrix(-0.5877 0.8091 -0.8091 -0.5877 114.8684 -79.0787)">
				<stop  offset="0" style="stop-color:#FFF200"/>
				<stop  offset="0.3565" style="stop-color:#AFC67B"/>
				<stop  offset="1" style="stop-color:#008FD5"/>
			</linearGradient>
			<path fill="url(#SVGID_6_)" d="M111.371,38.039c0,0-1.867-1.359-3.965-2.883c-2.453-1.785-6.16-2.191-7.133-1.102
				c-1.5,1.66-4.813,6.465-4.813,6.465l5.039,3.66C100.5,44.18,105.258,47.258,111.371,38.039z"/>
		</g>
	</g>
	<g>
		<defs>
			<path id="SVGID_7_" d="M86.137,49.398c0,0,0-4.738,0-10.031c0-6.215,1.566-12.844,2.801-13.164
				c1.883-0.469,6.816-0.18,6.816-0.18v12.762C95.754,38.785,95.496,50.359,86.137,49.398z"/>
		</defs>
		<clipPath id="SVGID_8_">
			<use xlink:href="#SVGID_7_"  overflow="visible"/>
		</clipPath>
		<g clip-path="url(#SVGID_8_)">
			
				<linearGradient id="SVGID_9_" gradientUnits="userSpaceOnUse" x1="110.9092" y1="-1.917" x2="134.4999" y2="21.6737" gradientTransform="matrix(0.6598 0.7515 -0.7515 0.6598 22.3493 -63.8383)">
				<stop  offset="0" style="stop-color:#FFF33B"/>
				<stop  offset="0.0595" style="stop-color:#FFE029"/>
				<stop  offset="0.1303" style="stop-color:#FFD218"/>
				<stop  offset="0.2032" style="stop-color:#FEC90F"/>
				<stop  offset="0.2809" style="stop-color:#FDC70C"/>
				<stop  offset="0.6685" style="stop-color:#F3903F"/>
				<stop  offset="0.8876" style="stop-color:#ED683C"/>
				<stop  offset="1" style="stop-color:#E93E3A"/>
			</linearGradient>
			<path fill="url(#SVGID_9_)" d="M97.766,18.297c0,0-3.594,3.16-7.625,6.695c-4.719,4.148-7.23,11.453-5.484,13.914
				c2.672,3.785,10.871,12.68,10.871,12.68l9.699-8.523C105.227,43.063,113.598,34.844,97.766,18.297z"/>
			
				<linearGradient id="SVGID_10_" gradientUnits="userSpaceOnUse" x1="104.6743" y1="15.9204" x2="128.2616" y2="39.5077" gradientTransform="matrix(0.8594 0.5113 -0.5113 0.8594 4.8795 -58.8785)">
				<stop  offset="0" style="stop-color:#F9ED32"/>
				<stop  offset="1" style="stop-color:#EC008C"/>
			</linearGradient>
			<path fill="url(#SVGID_10_)" d="M87.473,8.125c0,0-2.445,4.113-5.188,8.719c-3.211,5.406-3.348,13.129-0.93,14.926
				c3.715,2.777,14.25,8.707,14.25,8.707l6.602-11.102C102.207,29.375,107.633,18.98,87.473,8.125z"/>
			
				<linearGradient id="SVGID_11_" gradientUnits="userSpaceOnUse" x1="107.2158" y1="25.9082" x2="123.2178" y2="25.9082" gradientTransform="matrix(0.8788 0.782 -0.7184 1.009 6.9613 -72.1822)">
				<stop  offset="0" style="stop-color:#662D91"/>
				<stop  offset="1" style="stop-color:#27AAE1"/>
			</linearGradient>
			<path fill="url(#SVGID_11_)" d="M84.27,35.414c0,0-0.324,2.996-0.695,6.34c-0.426,3.934,1.242,8.355,2.883,8.738
				c2.52,0.586,9.242,1.133,9.242,1.133l0.879-8.074C96.578,43.551,97.02,36.195,84.27,35.414z"/>
			
				<linearGradient id="SVGID_12_" gradientUnits="userSpaceOnUse" x1="96.5376" y1="-65.7222" x2="107.9238" y2="-54.336" gradientTransform="matrix(-0.5877 0.8091 -0.8091 -0.5877 114.8684 -79.0787)">
				<stop  offset="0" style="stop-color:#FFF200"/>
				<stop  offset="0.3565" style="stop-color:#AFC67B"/>
				<stop  offset="1" style="stop-color:#008FD5"/>
			</linearGradient>
			<path fill="url(#SVGID_12_)" d="M111.371,38.039c0,0-1.867-1.359-3.965-2.883c-2.453-1.785-6.16-2.191-7.133-1.102
				c-1.5,1.66-4.813,6.465-4.813,6.465l5.039,3.66C100.5,44.18,105.258,47.258,111.371,38.039z"/>
		</g>
	</g>
	<g>
		<defs>
			<path id="SVGID_13_" d="M108.996,13.961c0,0,0,1.961,0,4.148c0,2.578-1.563,5.313-2.797,5.445
				c-1.883,0.191-6.824,0.074-6.824,0.074v-5.277C99.375,18.352,99.637,13.566,108.996,13.961z"/>
		</defs>
		<clipPath id="SVGID_14_">
			<use xlink:href="#SVGID_13_"  overflow="visible"/>
		</clipPath>
		<g clip-path="url(#SVGID_14_)">
			
				<linearGradient id="SVGID_15_" gradientUnits="userSpaceOnUse" x1="63.2324" y1="-68.9395" x2="86.8197" y2="-45.3522" gradientTransform="matrix(0.551 -0.8345 -0.8345 -0.551 20.0303 57.3633)">
				<stop  offset="0" style="stop-color:#FFF33B"/>
				<stop  offset="0.0595" style="stop-color:#FFE029"/>
				<stop  offset="0.1303" style="stop-color:#FFD218"/>
				<stop  offset="0.2032" style="stop-color:#FEC90F"/>
				<stop  offset="0.2809" style="stop-color:#FDC70C"/>
				<stop  offset="0.6685" style="stop-color:#F3903F"/>
				<stop  offset="0.8876" style="stop-color:#ED683C"/>
				<stop  offset="1" style="stop-color:#E93E3A"/>
			</linearGradient>
			<path fill="url(#SVGID_15_)" d="M113.184,42.422c0,0-3.992-2.641-8.465-5.59c-5.242-3.465-8.73-10.359-7.336-13.035
				c2.133-4.117,9.039-14.039,9.039-14.039l10.773,7.109C117.195,16.867,126.609,23.867,113.184,42.422z"/>
			
				<linearGradient id="SVGID_16_" gradientUnits="userSpaceOnUse" x1="79.0425" y1="-62.771" x2="102.6339" y2="-39.1796" gradientTransform="matrix(0.7816 -0.6238 -0.6238 -0.7816 2.6422 54.061)">
				<stop  offset="0" style="stop-color:#F9ED32"/>
				<stop  offset="1" style="stop-color:#EC008C"/>
			</linearGradient>
			<path fill="url(#SVGID_16_)" d="M104.375,53.906c0,0-2.984-3.742-6.328-7.93c-3.922-4.91-5.109-12.547-2.957-14.66
				c3.297-3.258,12.926-10.574,12.926-10.574l8.055,10.102C116.07,30.844,122.863,40.398,104.375,53.906z"/>
			
				<linearGradient id="SVGID_17_" gradientUnits="userSpaceOnUse" x1="80.0908" y1="-33.5825" x2="96.0884" y2="-33.5825" gradientTransform="matrix(0.7638 -0.8947 -0.8494 -0.9015 5.7735 66.5553)">
				<stop  offset="0" style="stop-color:#662D91"/>
				<stop  offset="1" style="stop-color:#27AAE1"/>
			</linearGradient>
			<path fill="url(#SVGID_17_)" d="M97.48,27.305c0,0-0.738-2.918-1.559-6.18c-0.957-3.836,0.094-8.453,1.668-9.055
				c2.414-0.914,8.996-2.383,8.996-2.383l1.977,7.883C108.563,17.57,110,24.797,97.48,27.305z"/>
			
				<linearGradient id="SVGID_18_" gradientUnits="userSpaceOnUse" x1="20.6167" y1="-32.9692" x2="32.0036" y2="-21.5823" gradientTransform="matrix(-0.6926 -0.7213 -0.7213 0.6926 114.4538 59.1031)">
				<stop  offset="0" style="stop-color:#FFF200"/>
				<stop  offset="0.3565" style="stop-color:#AFC67B"/>
				<stop  offset="1" style="stop-color:#008FD5"/>
			</linearGradient>
			<path fill="url(#SVGID_18_)" d="M123.965,21.008c0,0-1.664,1.602-3.531,3.398c-2.191,2.102-5.805,3.008-6.918,2.066
				c-1.711-1.441-5.652-5.746-5.652-5.746l4.496-4.32C112.359,16.406,116.656,12.719,123.965,21.008z"/>
		</g>
	</g>
	<g>
		<defs>
			<path id="SVGID_19_" d="M108.996,49.398c0,0,0-4.738,0-10.031c0-6.215-1.563-12.844-2.797-13.164
				c-1.883-0.469-6.824-0.18-6.824-0.18v12.762C99.375,38.785,99.637,50.359,108.996,49.398z"/>
		</defs>
		<clipPath id="SVGID_20_">
			<use xlink:href="#SVGID_19_"  overflow="visible"/>
		</clipPath>
		<g clip-path="url(#SVGID_20_)">
			
				<linearGradient id="SVGID_21_" gradientUnits="userSpaceOnUse" x1="63.2324" y1="-68.9395" x2="86.8197" y2="-45.3522" gradientTransform="matrix(0.551 -0.8345 -0.8345 -0.551 20.0303 57.3633)">
				<stop  offset="0" style="stop-color:#FFF33B"/>
				<stop  offset="0.0595" style="stop-color:#FFE029"/>
				<stop  offset="0.1303" style="stop-color:#FFD218"/>
				<stop  offset="0.2032" style="stop-color:#FEC90F"/>
				<stop  offset="0.2809" style="stop-color:#FDC70C"/>
				<stop  offset="0.6685" style="stop-color:#F3903F"/>
				<stop  offset="0.8876" style="stop-color:#ED683C"/>
				<stop  offset="1" style="stop-color:#E93E3A"/>
			</linearGradient>
			<path fill="url(#SVGID_21_)" d="M113.184,42.422c0,0-3.992-2.641-8.465-5.59c-5.242-3.465-8.73-10.359-7.336-13.035
				c2.133-4.117,9.039-14.039,9.039-14.039l10.773,7.109C117.195,16.867,126.609,23.867,113.184,42.422z"/>
			
				<linearGradient id="SVGID_22_" gradientUnits="userSpaceOnUse" x1="79.0425" y1="-62.771" x2="102.6339" y2="-39.1796" gradientTransform="matrix(0.7816 -0.6238 -0.6238 -0.7816 2.6422 54.061)">
				<stop  offset="0" style="stop-color:#F9ED32"/>
				<stop  offset="1" style="stop-color:#EC008C"/>
			</linearGradient>
			<path fill="url(#SVGID_22_)" d="M104.375,53.906c0,0-2.984-3.742-6.328-7.93c-3.922-4.91-5.109-12.547-2.957-14.66
				c3.297-3.258,12.926-10.574,12.926-10.574l8.055,10.102C116.07,30.844,122.863,40.398,104.375,53.906z"/>
			
				<linearGradient id="SVGID_23_" gradientUnits="userSpaceOnUse" x1="80.0908" y1="-33.5825" x2="96.0884" y2="-33.5825" gradientTransform="matrix(0.7638 -0.8947 -0.8494 -0.9015 5.7735 66.5553)">
				<stop  offset="0" style="stop-color:#662D91"/>
				<stop  offset="1" style="stop-color:#27AAE1"/>
			</linearGradient>
			<path fill="url(#SVGID_23_)" d="M97.48,27.305c0,0-0.738-2.918-1.559-6.18c-0.957-3.836,0.094-8.453,1.668-9.055
				c2.414-0.914,8.996-2.383,8.996-2.383l1.977,7.883C108.563,17.57,110,24.797,97.48,27.305z"/>
			
				<linearGradient id="SVGID_24_" gradientUnits="userSpaceOnUse" x1="20.6167" y1="-32.9692" x2="32.0036" y2="-21.5823" gradientTransform="matrix(-0.6926 -0.7213 -0.7213 0.6926 114.4538 59.1031)">
				<stop  offset="0" style="stop-color:#FFF200"/>
				<stop  offset="0.3565" style="stop-color:#AFC67B"/>
				<stop  offset="1" style="stop-color:#008FD5"/>
			</linearGradient>
			<path fill="url(#SVGID_24_)" d="M123.965,21.008c0,0-1.664,1.602-3.531,3.398c-2.191,2.102-5.805,3.008-6.918,2.066
				c-1.711-1.441-5.652-5.746-5.652-5.746l4.496-4.32C112.359,16.406,116.656,12.719,123.965,21.008z"/>
		</g>
	</g>
	<g>
		<defs>
			<path id="SVGID_25_" d="M59.289,49.453h-7.883V14.141h7.883v13.813h13.758V14.141h7.934v35.313h-7.934V35.547H59.289V49.453z"/>
		</defs>
		<clipPath id="SVGID_26_">
			<use xlink:href="#SVGID_25_"  overflow="visible"/>
		</clipPath>
		<g clip-path="url(#SVGID_26_)">
			
				<linearGradient id="SVGID_27_" gradientUnits="userSpaceOnUse" x1="77.3848" y1="8.6738" x2="117.2514" y2="48.5404" gradientTransform="matrix(0.7525 0.6586 -0.6586 0.7525 15.5637 -54.247)">
				<stop  offset="0" style="stop-color:#FFF33B"/>
				<stop  offset="0.0595" style="stop-color:#FFE029"/>
				<stop  offset="0.1303" style="stop-color:#FFD218"/>
				<stop  offset="0.2032" style="stop-color:#FEC90F"/>
				<stop  offset="0.2809" style="stop-color:#FDC70C"/>
				<stop  offset="0.6685" style="stop-color:#F3903F"/>
				<stop  offset="0.8876" style="stop-color:#ED683C"/>
				<stop  offset="1" style="stop-color:#E93E3A"/>
			</linearGradient>
			<path fill="url(#SVGID_27_)" d="M69.434,3.156c0,0-5.324,6.09-11.297,12.895c-6.992,8.004-9.586,20.797-6.113,24.535
				c5.32,5.754,21.02,18.836,21.02,18.836L87.414,43C87.414,43,99.621,27.379,69.434,3.156z"/>
			
				<linearGradient id="SVGID_28_" gradientUnits="userSpaceOnUse" x1="58.938" y1="13.3101" x2="98.8053" y2="53.1773" gradientTransform="matrix(0.919 0.3943 -0.3943 0.919 -0.2453 -46.5844)">
				<stop  offset="0" style="stop-color:#F9ED32"/>
				<stop  offset="1" style="stop-color:#EC008C"/>
			</linearGradient>
			<path fill="url(#SVGID_28_)" d="M49.93-11.617c0,0-3.188,7.438-6.762,15.758c-4.191,9.762-2.707,22.734,1.746,25.227
				c6.836,3.824,25.805,11.426,25.805,11.426l8.605-20.059C79.324,20.734,86.117,2.117,49.93-11.617z"/>
			
				<linearGradient id="SVGID_29_" gradientUnits="userSpaceOnUse" x1="77.0854" y1="43.9209" x2="104.1333" y2="43.9209" gradientTransform="matrix(0.9736 0.6602 -0.5801 1.0944 -1.287 -59.7655)">
				<stop  offset="0" style="stop-color:#662D91"/>
				<stop  offset="1" style="stop-color:#27AAE1"/>
			</linearGradient>
			<path fill="url(#SVGID_29_)" d="M50.605,34.816c0,0,0.113,5.098,0.234,10.785c0.16,6.688,3.934,13.73,6.77,13.996
				c4.352,0.426,15.738-0.148,15.738-0.148L73.031,45.73C73.031,45.73,72.141,33.305,50.605,34.816z"/>
			
				<linearGradient id="SVGID_30_" gradientUnits="userSpaceOnUse" x1="104.167" y1="-45.3672" x2="123.4163" y2="-26.1179" gradientTransform="matrix(-0.4766 0.8791 -0.8791 -0.4766 106.1752 -80.6047)">
				<stop  offset="0" style="stop-color:#FFF200"/>
				<stop  offset="0.3565" style="stop-color:#AFC67B"/>
				<stop  offset="1" style="stop-color:#008FD5"/>
			</linearGradient>
			<path fill="url(#SVGID_30_)" d="M96.598,33.219c0,0-3.434-1.859-7.277-3.949c-4.508-2.445-10.813-2.305-12.203-0.27
				c-2.145,3.121-6.637,11.898-6.637,11.898l9.258,5.027C79.738,45.926,88.398,50.016,96.598,33.219z"/>
		</g>
	</g>
	<g opacity="0.8">
		<g>
			<defs>
				<path id="SVGID_31_" d="M86.137,13.961c0,0,0,1.961,0,4.148c0,2.578,1.566,5.313,2.801,5.445
					c1.883,0.191,6.816,0.074,6.816,0.074v-5.277C95.754,18.352,95.496,13.566,86.137,13.961z"/>
			</defs>
			<clipPath id="SVGID_32_">
				<use xlink:href="#SVGID_31_"  overflow="visible"/>
			</clipPath>
			<g clip-path="url(#SVGID_32_)">
				
					<linearGradient id="SVGID_33_" gradientUnits="userSpaceOnUse" x1="110.9092" y1="-1.917" x2="134.4999" y2="21.6737" gradientTransform="matrix(0.6598 0.7515 -0.7515 0.6598 22.3493 -63.8383)">
					<stop  offset="0" style="stop-color:#FFF33B"/>
					<stop  offset="0.0595" style="stop-color:#FFE029"/>
					<stop  offset="0.1303" style="stop-color:#FFD218"/>
					<stop  offset="0.2032" style="stop-color:#FEC90F"/>
					<stop  offset="0.2809" style="stop-color:#FDC70C"/>
					<stop  offset="0.6685" style="stop-color:#F3903F"/>
					<stop  offset="0.8876" style="stop-color:#ED683C"/>
					<stop  offset="1" style="stop-color:#E93E3A"/>
				</linearGradient>
				<path fill="url(#SVGID_33_)" d="M97.766,18.297c0,0-3.594,3.16-7.625,6.695c-4.719,4.148-7.23,11.453-5.484,13.914
					c2.672,3.785,10.871,12.68,10.871,12.68l9.699-8.523C105.227,43.063,113.598,34.844,97.766,18.297z"/>
				
					<linearGradient id="SVGID_34_" gradientUnits="userSpaceOnUse" x1="104.6743" y1="15.9204" x2="128.2616" y2="39.5077" gradientTransform="matrix(0.8594 0.5113 -0.5113 0.8594 4.8795 -58.8785)">
					<stop  offset="0" style="stop-color:#F9ED32"/>
					<stop  offset="1" style="stop-color:#EC008C"/>
				</linearGradient>
				<path fill="url(#SVGID_34_)" d="M87.473,8.125c0,0-2.445,4.113-5.188,8.719c-3.211,5.406-3.348,13.129-0.93,14.926
					c3.715,2.777,14.25,8.707,14.25,8.707l6.602-11.102C102.207,29.375,107.633,18.98,87.473,8.125z"/>
				
					<linearGradient id="SVGID_35_" gradientUnits="userSpaceOnUse" x1="107.2158" y1="25.9082" x2="123.2178" y2="25.9082" gradientTransform="matrix(0.8788 0.782 -0.7184 1.009 6.9613 -72.1822)">
					<stop  offset="0" style="stop-color:#662D91"/>
					<stop  offset="1" style="stop-color:#27AAE1"/>
				</linearGradient>
				<path fill="url(#SVGID_35_)" d="M84.27,35.414c0,0-0.324,2.996-0.695,6.34c-0.426,3.934,1.242,8.355,2.883,8.738
					c2.52,0.586,9.242,1.133,9.242,1.133l0.879-8.074C96.578,43.551,97.02,36.195,84.27,35.414z"/>
				
					<linearGradient id="SVGID_36_" gradientUnits="userSpaceOnUse" x1="96.5376" y1="-65.7222" x2="107.9238" y2="-54.336" gradientTransform="matrix(-0.5877 0.8091 -0.8091 -0.5877 114.8684 -79.0787)">
					<stop  offset="0" style="stop-color:#FFF200"/>
					<stop  offset="0.3565" style="stop-color:#AFC67B"/>
					<stop  offset="1" style="stop-color:#008FD5"/>
				</linearGradient>
				<path fill="url(#SVGID_36_)" d="M111.371,38.039c0,0-1.867-1.359-3.965-2.883c-2.453-1.785-6.16-2.191-7.133-1.102
					c-1.5,1.66-4.813,6.465-4.813,6.465l5.039,3.66C100.5,44.18,105.258,47.258,111.371,38.039z"/>
			</g>
		</g>
		<g>
			<defs>
				<path id="SVGID_37_" d="M86.137,49.398c0,0,0-4.738,0-10.031c0-6.215,1.566-12.844,2.801-13.164
					c1.883-0.469,6.816-0.18,6.816-0.18v12.762C95.754,38.785,95.496,50.359,86.137,49.398z"/>
			</defs>
			<clipPath id="SVGID_38_">
				<use xlink:href="#SVGID_37_"  overflow="visible"/>
			</clipPath>
			<g clip-path="url(#SVGID_38_)">
				
					<linearGradient id="SVGID_39_" gradientUnits="userSpaceOnUse" x1="110.9092" y1="-1.917" x2="134.4999" y2="21.6737" gradientTransform="matrix(0.6598 0.7515 -0.7515 0.6598 22.3493 -63.8383)">
					<stop  offset="0" style="stop-color:#FFF33B"/>
					<stop  offset="0.0595" style="stop-color:#FFE029"/>
					<stop  offset="0.1303" style="stop-color:#FFD218"/>
					<stop  offset="0.2032" style="stop-color:#FEC90F"/>
					<stop  offset="0.2809" style="stop-color:#FDC70C"/>
					<stop  offset="0.6685" style="stop-color:#F3903F"/>
					<stop  offset="0.8876" style="stop-color:#ED683C"/>
					<stop  offset="1" style="stop-color:#E93E3A"/>
				</linearGradient>
				<path fill="url(#SVGID_39_)" d="M97.766,18.297c0,0-3.594,3.16-7.625,6.695c-4.719,4.148-7.23,11.453-5.484,13.914
					c2.672,3.785,10.871,12.68,10.871,12.68l9.699-8.523C105.227,43.063,113.598,34.844,97.766,18.297z"/>
				
					<linearGradient id="SVGID_40_" gradientUnits="userSpaceOnUse" x1="104.6743" y1="15.9204" x2="128.2616" y2="39.5077" gradientTransform="matrix(0.8594 0.5113 -0.5113 0.8594 4.8795 -58.8785)">
					<stop  offset="0" style="stop-color:#F9ED32"/>
					<stop  offset="1" style="stop-color:#EC008C"/>
				</linearGradient>
				<path fill="url(#SVGID_40_)" d="M87.473,8.125c0,0-2.445,4.113-5.188,8.719c-3.211,5.406-3.348,13.129-0.93,14.926
					c3.715,2.777,14.25,8.707,14.25,8.707l6.602-11.102C102.207,29.375,107.633,18.98,87.473,8.125z"/>
				
					<linearGradient id="SVGID_41_" gradientUnits="userSpaceOnUse" x1="107.2158" y1="25.9082" x2="123.2178" y2="25.9082" gradientTransform="matrix(0.8788 0.782 -0.7184 1.009 6.9613 -72.1822)">
					<stop  offset="0" style="stop-color:#662D91"/>
					<stop  offset="1" style="stop-color:#27AAE1"/>
				</linearGradient>
				<path fill="url(#SVGID_41_)" d="M84.27,35.414c0,0-0.324,2.996-0.695,6.34c-0.426,3.934,1.242,8.355,2.883,8.738
					c2.52,0.586,9.242,1.133,9.242,1.133l0.879-8.074C96.578,43.551,97.02,36.195,84.27,35.414z"/>
				
					<linearGradient id="SVGID_42_" gradientUnits="userSpaceOnUse" x1="96.5376" y1="-65.7222" x2="107.9238" y2="-54.336" gradientTransform="matrix(-0.5877 0.8091 -0.8091 -0.5877 114.8684 -79.0787)">
					<stop  offset="0" style="stop-color:#FFF200"/>
					<stop  offset="0.3565" style="stop-color:#AFC67B"/>
					<stop  offset="1" style="stop-color:#008FD5"/>
				</linearGradient>
				<path fill="url(#SVGID_42_)" d="M111.371,38.039c0,0-1.867-1.359-3.965-2.883c-2.453-1.785-6.16-2.191-7.133-1.102
					c-1.5,1.66-4.813,6.465-4.813,6.465l5.039,3.66C100.5,44.18,105.258,47.258,111.371,38.039z"/>
			</g>
		</g>
		<g>
			<defs>
				<path id="SVGID_43_" d="M108.996,13.961c0,0,0,1.961,0,4.148c0,2.578-1.563,5.313-2.797,5.445
					c-1.883,0.191-6.824,0.074-6.824,0.074v-5.277C99.375,18.352,99.637,13.566,108.996,13.961z"/>
			</defs>
			<clipPath id="SVGID_44_">
				<use xlink:href="#SVGID_43_"  overflow="visible"/>
			</clipPath>
			<g clip-path="url(#SVGID_44_)">
				
					<linearGradient id="SVGID_45_" gradientUnits="userSpaceOnUse" x1="63.2324" y1="-68.9395" x2="86.8197" y2="-45.3522" gradientTransform="matrix(0.551 -0.8345 -0.8345 -0.551 20.0303 57.3633)">
					<stop  offset="0" style="stop-color:#FFF33B"/>
					<stop  offset="0.0595" style="stop-color:#FFE029"/>
					<stop  offset="0.1303" style="stop-color:#FFD218"/>
					<stop  offset="0.2032" style="stop-color:#FEC90F"/>
					<stop  offset="0.2809" style="stop-color:#FDC70C"/>
					<stop  offset="0.6685" style="stop-color:#F3903F"/>
					<stop  offset="0.8876" style="stop-color:#ED683C"/>
					<stop  offset="1" style="stop-color:#E93E3A"/>
				</linearGradient>
				<path fill="url(#SVGID_45_)" d="M113.184,42.422c0,0-3.992-2.641-8.465-5.59c-5.242-3.465-8.73-10.359-7.336-13.035
					c2.133-4.117,9.039-14.039,9.039-14.039l10.773,7.109C117.195,16.867,126.609,23.867,113.184,42.422z"/>
				
					<linearGradient id="SVGID_46_" gradientUnits="userSpaceOnUse" x1="79.0425" y1="-62.771" x2="102.6339" y2="-39.1796" gradientTransform="matrix(0.7816 -0.6238 -0.6238 -0.7816 2.6422 54.061)">
					<stop  offset="0" style="stop-color:#F9ED32"/>
					<stop  offset="1" style="stop-color:#EC008C"/>
				</linearGradient>
				<path fill="url(#SVGID_46_)" d="M104.375,53.906c0,0-2.984-3.742-6.328-7.93c-3.922-4.91-5.109-12.547-2.957-14.66
					c3.297-3.258,12.926-10.574,12.926-10.574l8.055,10.102C116.07,30.844,122.863,40.398,104.375,53.906z"/>
				
					<linearGradient id="SVGID_47_" gradientUnits="userSpaceOnUse" x1="80.0908" y1="-33.5825" x2="96.0884" y2="-33.5825" gradientTransform="matrix(0.7638 -0.8947 -0.8494 -0.9015 5.7735 66.5553)">
					<stop  offset="0" style="stop-color:#662D91"/>
					<stop  offset="1" style="stop-color:#27AAE1"/>
				</linearGradient>
				<path fill="url(#SVGID_47_)" d="M97.48,27.305c0,0-0.738-2.918-1.559-6.18c-0.957-3.836,0.094-8.453,1.668-9.055
					c2.414-0.914,8.996-2.383,8.996-2.383l1.977,7.883C108.563,17.57,110,24.797,97.48,27.305z"/>
				
					<linearGradient id="SVGID_48_" gradientUnits="userSpaceOnUse" x1="20.6167" y1="-32.9692" x2="32.0036" y2="-21.5823" gradientTransform="matrix(-0.6926 -0.7213 -0.7213 0.6926 114.4538 59.1031)">
					<stop  offset="0" style="stop-color:#FFF200"/>
					<stop  offset="0.3565" style="stop-color:#AFC67B"/>
					<stop  offset="1" style="stop-color:#008FD5"/>
				</linearGradient>
				<path fill="url(#SVGID_48_)" d="M123.965,21.008c0,0-1.664,1.602-3.531,3.398c-2.191,2.102-5.805,3.008-6.918,2.066
					c-1.711-1.441-5.652-5.746-5.652-5.746l4.496-4.32C112.359,16.406,116.656,12.719,123.965,21.008z"/>
			</g>
		</g>
		<g>
			<defs>
				<path id="SVGID_49_" d="M108.996,49.398c0,0,0-4.738,0-10.031c0-6.215-1.563-12.844-2.797-13.164
					c-1.883-0.469-6.824-0.18-6.824-0.18v12.762C99.375,38.785,99.637,50.359,108.996,49.398z"/>
			</defs>
			<clipPath id="SVGID_50_">
				<use xlink:href="#SVGID_49_"  overflow="visible"/>
			</clipPath>
			<g clip-path="url(#SVGID_50_)">
				
					<linearGradient id="SVGID_51_" gradientUnits="userSpaceOnUse" x1="63.2324" y1="-68.9395" x2="86.8197" y2="-45.3522" gradientTransform="matrix(0.551 -0.8345 -0.8345 -0.551 20.0303 57.3633)">
					<stop  offset="0" style="stop-color:#FFF33B"/>
					<stop  offset="0.0595" style="stop-color:#FFE029"/>
					<stop  offset="0.1303" style="stop-color:#FFD218"/>
					<stop  offset="0.2032" style="stop-color:#FEC90F"/>
					<stop  offset="0.2809" style="stop-color:#FDC70C"/>
					<stop  offset="0.6685" style="stop-color:#F3903F"/>
					<stop  offset="0.8876" style="stop-color:#ED683C"/>
					<stop  offset="1" style="stop-color:#E93E3A"/>
				</linearGradient>
				<path fill="url(#SVGID_51_)" d="M113.184,42.422c0,0-3.992-2.641-8.465-5.59c-5.242-3.465-8.73-10.359-7.336-13.035
					c2.133-4.117,9.039-14.039,9.039-14.039l10.773,7.109C117.195,16.867,126.609,23.867,113.184,42.422z"/>
				
					<linearGradient id="SVGID_52_" gradientUnits="userSpaceOnUse" x1="79.0425" y1="-62.771" x2="102.6339" y2="-39.1796" gradientTransform="matrix(0.7816 -0.6238 -0.6238 -0.7816 2.6422 54.061)">
					<stop  offset="0" style="stop-color:#F9ED32"/>
					<stop  offset="1" style="stop-color:#EC008C"/>
				</linearGradient>
				<path fill="url(#SVGID_52_)" d="M104.375,53.906c0,0-2.984-3.742-6.328-7.93c-3.922-4.91-5.109-12.547-2.957-14.66
					c3.297-3.258,12.926-10.574,12.926-10.574l8.055,10.102C116.07,30.844,122.863,40.398,104.375,53.906z"/>
				
					<linearGradient id="SVGID_53_" gradientUnits="userSpaceOnUse" x1="80.0908" y1="-33.5825" x2="96.0884" y2="-33.5825" gradientTransform="matrix(0.7638 -0.8947 -0.8494 -0.9015 5.7735 66.5553)">
					<stop  offset="0" style="stop-color:#662D91"/>
					<stop  offset="1" style="stop-color:#27AAE1"/>
				</linearGradient>
				<path fill="url(#SVGID_53_)" d="M97.48,27.305c0,0-0.738-2.918-1.559-6.18c-0.957-3.836,0.094-8.453,1.668-9.055
					c2.414-0.914,8.996-2.383,8.996-2.383l1.977,7.883C108.563,17.57,110,24.797,97.48,27.305z"/>
				
					<linearGradient id="SVGID_54_" gradientUnits="userSpaceOnUse" x1="20.6167" y1="-32.9692" x2="32.0036" y2="-21.5823" gradientTransform="matrix(-0.6926 -0.7213 -0.7213 0.6926 114.4538 59.1031)">
					<stop  offset="0" style="stop-color:#FFF200"/>
					<stop  offset="0.3565" style="stop-color:#AFC67B"/>
					<stop  offset="1" style="stop-color:#008FD5"/>
				</linearGradient>
				<path fill="url(#SVGID_54_)" d="M123.965,21.008c0,0-1.664,1.602-3.531,3.398c-2.191,2.102-5.805,3.008-6.918,2.066
					c-1.711-1.441-5.652-5.746-5.652-5.746l4.496-4.32C112.359,16.406,116.656,12.719,123.965,21.008z"/>
			</g>
		</g>
		<g>
			<defs>
				<path id="SVGID_55_" d="M59.289,49.453h-7.883V14.141h7.883v13.813h13.758V14.141h7.934v35.313h-7.934V35.547H59.289V49.453z"/>
			</defs>
			<clipPath id="SVGID_56_">
				<use xlink:href="#SVGID_55_"  overflow="visible"/>
			</clipPath>
			<g clip-path="url(#SVGID_56_)">
				
					<linearGradient id="SVGID_57_" gradientUnits="userSpaceOnUse" x1="77.3848" y1="8.6738" x2="117.2514" y2="48.5404" gradientTransform="matrix(0.7525 0.6586 -0.6586 0.7525 15.5637 -54.247)">
					<stop  offset="0" style="stop-color:#FFF33B"/>
					<stop  offset="0.0595" style="stop-color:#FFE029"/>
					<stop  offset="0.1303" style="stop-color:#FFD218"/>
					<stop  offset="0.2032" style="stop-color:#FEC90F"/>
					<stop  offset="0.2809" style="stop-color:#FDC70C"/>
					<stop  offset="0.6685" style="stop-color:#F3903F"/>
					<stop  offset="0.8876" style="stop-color:#ED683C"/>
					<stop  offset="1" style="stop-color:#E93E3A"/>
				</linearGradient>
				<path fill="url(#SVGID_57_)" d="M69.434,3.156c0,0-5.324,6.09-11.297,12.895c-6.992,8.004-9.586,20.797-6.113,24.535
					c5.32,5.754,21.02,18.836,21.02,18.836L87.414,43C87.414,43,99.621,27.379,69.434,3.156z"/>
				
					<linearGradient id="SVGID_58_" gradientUnits="userSpaceOnUse" x1="58.938" y1="13.3101" x2="98.8053" y2="53.1773" gradientTransform="matrix(0.919 0.3943 -0.3943 0.919 -0.2453 -46.5844)">
					<stop  offset="0" style="stop-color:#F9ED32"/>
					<stop  offset="1" style="stop-color:#EC008C"/>
				</linearGradient>
				<path fill="url(#SVGID_58_)" d="M49.93-11.617c0,0-3.188,7.438-6.762,15.758c-4.191,9.762-2.707,22.734,1.746,25.227
					c6.836,3.824,25.805,11.426,25.805,11.426l8.605-20.059C79.324,20.734,86.117,2.117,49.93-11.617z"/>
				
					<linearGradient id="SVGID_59_" gradientUnits="userSpaceOnUse" x1="77.0854" y1="43.9209" x2="104.1333" y2="43.9209" gradientTransform="matrix(0.9736 0.6602 -0.5801 1.0944 -1.287 -59.7655)">
					<stop  offset="0" style="stop-color:#662D91"/>
					<stop  offset="1" style="stop-color:#27AAE1"/>
				</linearGradient>
				<path fill="url(#SVGID_59_)" d="M50.605,34.816c0,0,0.113,5.098,0.234,10.785c0.16,6.688,3.934,13.73,6.77,13.996
					c4.352,0.426,15.738-0.148,15.738-0.148L73.031,45.73C73.031,45.73,72.141,33.305,50.605,34.816z"/>
				
					<linearGradient id="SVGID_60_" gradientUnits="userSpaceOnUse" x1="104.167" y1="-45.3672" x2="123.4163" y2="-26.1179" gradientTransform="matrix(-0.4766 0.8791 -0.8791 -0.4766 106.1752 -80.6047)">
					<stop  offset="0" style="stop-color:#FFF200"/>
					<stop  offset="0.3565" style="stop-color:#AFC67B"/>
					<stop  offset="1" style="stop-color:#008FD5"/>
				</linearGradient>
				<path fill="url(#SVGID_60_)" d="M96.598,33.219c0,0-3.434-1.859-7.277-3.949c-4.508-2.445-10.813-2.305-12.203-0.27
					c-2.145,3.121-6.637,11.898-6.637,11.898l9.258,5.027C79.738,45.926,88.398,50.016,96.598,33.219z"/>
			</g>
		</g>
	</g>
	<g>
		<linearGradient id="SVGID_61_" gradientUnits="userSpaceOnUse" x1="-1.0903" y1="8.52" x2="44.228" y2="53.8384">
			<stop  offset="0" style="stop-color:#FFF200"/>
			<stop  offset="0.3565" style="stop-color:#AFC67B"/>
			<stop  offset="1" style="stop-color:#008FD5"/>
		</linearGradient>
		<path fill="url(#SVGID_61_)" d="M0,7.43c0,0,0,9.195,0,19.492c0,12.07,7.363,24.961,13.129,25.566
			c8.855,0.926,32.078,0.371,32.078,0.371V28.055C45.207,28.055,43.953,5.555,0,7.43z"/>
		<linearGradient id="SVGID_62_" gradientUnits="userSpaceOnUse" x1="-1.0903" y1="8.52" x2="44.228" y2="53.8384">
			<stop  offset="0" style="stop-color:#FFF200"/>
			<stop  offset="0.3565" style="stop-color:#AFC67B"/>
			<stop  offset="1" style="stop-color:#008FD5"/>
		</linearGradient>
		<path fill="url(#SVGID_62_)" d="M0,7.43c0,0,0,9.195,0,19.492c0,12.07,7.363,24.961,13.129,25.566
			c8.855,0.926,32.078,0.371,32.078,0.371V28.055C45.207,28.055,43.953,5.555,0,7.43z"/>
		
			<linearGradient id="SVGID_63_" gradientUnits="userSpaceOnUse" x1="4.1943" y1="10.2061" x2="49.5106" y2="55.5223" gradientTransform="matrix(0.9841 0.1778 -0.1778 0.9841 2.8828 -9.9089)">
			<stop  offset="0" style="stop-color:#FFF200"/>
			<stop  offset="0.3565" style="stop-color:#AFC67B"/>
			<stop  offset="1" style="stop-color:#008FD5"/>
		</linearGradient>
		<path fill="url(#SVGID_63_)" d="M6.465,0c0,0-1.637,9.055-3.473,19.188c-2.145,11.879,2.813,25.875,8.383,27.488
			c8.547,2.496,31.496,6.07,31.496,6.07l4.414-24.41C47.285,28.336,50.051,5.977,6.465,0z"/>
	</g>
	<g>
		<path fill="#F26522" d="M141.828,49.348h-25.516V14.037h7.933v27.761h17.583V49.348z"/>
		<path fill="#F26522" d="M175.801,49.348h-8.218l-2.342-7.119h-11.85l-2.438,7.119h-8.218l13.235-35.311h6.881L175.801,49.348z
			 M163.139,35.3l-3.774-11.181L155.542,35.3H163.139z"/>
		<path fill="#F26522" d="M201.078,29.996c2.166,0.542,3.83,1.617,4.993,3.225c1.162,1.609,1.744,3.545,1.744,5.806
			c0,2.932-1.036,5.384-3.106,7.358c-2.07,1.976-4.794,2.963-8.17,2.963h-16.677V14.037h15.864c3.28,0,5.797,0.876,7.55,2.628
			c1.783,1.72,2.676,3.759,2.676,6.116c0,1.593-0.447,3.058-1.338,4.396C203.722,28.515,202.543,29.455,201.078,29.996z
			 M194.341,20.821h-6.689v6.929h6.354c1.274,0,2.277-0.334,3.011-1.003c0.732-0.669,1.099-1.513,1.099-2.533
			c0-0.955-0.343-1.76-1.027-2.413C196.403,21.148,195.487,20.821,194.341,20.821z M187.651,42.515h7.215
			c1.497,0,2.668-0.397,3.512-1.194c0.844-0.796,1.267-1.783,1.267-2.963c0-1.21-0.406-2.205-1.219-2.986
			c-0.812-0.78-1.951-1.17-3.416-1.17h-7.358V42.515z"/>
		<path fill="#F26522" d="M237.87,49.348h-24.608V14.037h24.656v7.358h-16.724v6.546h15.481v7.311h-15.481v6.737h16.676V49.348z"/>
		<path fill="#F26522" d="M269.691,49.348h-25.516V14.037h7.933v27.761h17.583V49.348z"/>
	</g>
	<g>
		<path d="M55.379,60.676h-0.62v-1.38l-1.39-2.12h0.725l0.98,1.55l0.99-1.55h0.705l-1.39,2.105V60.676z"/>
		<path d="M65.729,59.621c-0.09,0.22-0.216,0.412-0.38,0.577c-0.163,0.165-0.356,0.296-0.58,0.393
			c-0.223,0.097-0.47,0.145-0.74,0.145s-0.517-0.047-0.74-0.142c-0.223-0.096-0.415-0.225-0.575-0.388
			c-0.16-0.163-0.285-0.355-0.375-0.575c-0.09-0.22-0.135-0.453-0.135-0.7c0-0.246,0.045-0.479,0.135-0.7
			c0.09-0.22,0.216-0.412,0.38-0.577c0.163-0.165,0.356-0.296,0.58-0.393c0.223-0.097,0.47-0.145,0.74-0.145s0.517,0.047,0.74,0.142
			c0.223,0.096,0.415,0.225,0.575,0.388c0.16,0.164,0.285,0.355,0.375,0.575c0.09,0.22,0.135,0.453,0.135,0.7
			S65.819,59.4,65.729,59.621z M65.132,58.448c-0.059-0.151-0.14-0.284-0.245-0.397s-0.231-0.203-0.377-0.27
			c-0.147-0.067-0.307-0.101-0.48-0.101s-0.333,0.032-0.478,0.098s-0.27,0.153-0.373,0.265c-0.104,0.112-0.184,0.244-0.243,0.396
			c-0.058,0.151-0.087,0.313-0.087,0.482s0.029,0.331,0.087,0.482c0.059,0.151,0.14,0.284,0.245,0.397s0.231,0.203,0.377,0.27
			c0.147,0.067,0.307,0.101,0.48,0.101s0.333-0.032,0.478-0.098s0.269-0.153,0.373-0.265c0.104-0.112,0.184-0.243,0.243-0.396
			c0.058-0.151,0.087-0.313,0.087-0.482S65.19,58.6,65.132,58.448z"/>
		<path d="M74.899,59.161c0,0.26-0.036,0.488-0.107,0.685c-0.072,0.197-0.173,0.361-0.303,0.492c-0.13,0.132-0.288,0.23-0.473,0.295
			c-0.185,0.065-0.392,0.098-0.623,0.098c-0.227,0-0.432-0.032-0.615-0.098c-0.184-0.064-0.34-0.162-0.47-0.292
			c-0.13-0.13-0.23-0.291-0.3-0.482s-0.105-0.414-0.105-0.668v-2.015h0.61v1.99c0,0.326,0.079,0.575,0.236,0.745
			c0.158,0.17,0.375,0.255,0.654,0.255c0.275,0,0.491-0.082,0.648-0.245c0.158-0.163,0.236-0.407,0.236-0.73v-2.015h0.61V59.161z"/>
		<path d="M83.34,60.676l-0.863-1.22h-0.772v1.22h-0.609v-3.5h1.56c0.2,0,0.381,0.025,0.543,0.077
			c0.161,0.052,0.298,0.125,0.41,0.221c0.111,0.095,0.197,0.211,0.257,0.35c0.061,0.139,0.09,0.293,0.09,0.463
			c0,0.146-0.021,0.277-0.063,0.393c-0.041,0.114-0.099,0.216-0.172,0.305c-0.073,0.088-0.161,0.163-0.263,0.225
			s-0.214,0.109-0.338,0.143l0.945,1.325H83.34z M83.139,57.879c-0.127-0.099-0.306-0.148-0.536-0.148h-0.898v1.181h0.903
			c0.221,0,0.396-0.054,0.526-0.161c0.131-0.107,0.195-0.251,0.195-0.432C83.329,58.124,83.266,57.978,83.139,57.879z"/>
		<path d="M98.389,60.676h-0.62v-2.93h-1.109v-0.57h2.84v0.57h-1.11V60.676z"/>
		<path d="M107.744,60.676l-0.863-1.22h-0.772v1.22h-0.609v-3.5h1.56c0.2,0,0.381,0.025,0.543,0.077
			c0.161,0.052,0.298,0.125,0.41,0.221c0.111,0.095,0.197,0.211,0.257,0.35c0.061,0.139,0.09,0.293,0.09,0.463
			c0,0.146-0.021,0.277-0.063,0.393c-0.041,0.114-0.099,0.216-0.172,0.305c-0.073,0.088-0.161,0.163-0.263,0.225
			s-0.214,0.109-0.338,0.143l0.945,1.325H107.744z M107.543,57.879c-0.127-0.099-0.306-0.148-0.536-0.148h-0.898v1.181h0.903
			c0.221,0,0.396-0.054,0.526-0.161c0.131-0.107,0.195-0.251,0.195-0.432C107.733,58.124,107.67,57.978,107.543,57.879z"/>
		<path d="M117.403,59.161c0,0.26-0.035,0.488-0.107,0.685c-0.071,0.197-0.172,0.361-0.302,0.492
			c-0.131,0.132-0.288,0.23-0.473,0.295c-0.186,0.065-0.393,0.098-0.623,0.098c-0.227,0-0.432-0.032-0.615-0.098
			c-0.183-0.064-0.34-0.162-0.47-0.292s-0.229-0.291-0.3-0.482s-0.105-0.414-0.105-0.668v-2.015h0.61v1.99
			c0,0.326,0.079,0.575,0.236,0.745s0.376,0.255,0.653,0.255c0.275,0,0.491-0.082,0.649-0.245c0.157-0.163,0.236-0.407,0.236-0.73
			v-2.015h0.609V59.161z"/>
		<path d="M124.148,58.271c0.023,0.05,0.066,0.097,0.128,0.141c0.062,0.043,0.147,0.083,0.256,0.12
			c0.108,0.036,0.246,0.074,0.413,0.114c0.184,0.047,0.347,0.099,0.489,0.155c0.142,0.057,0.26,0.126,0.354,0.207
			c0.093,0.082,0.164,0.177,0.213,0.285c0.048,0.108,0.072,0.236,0.072,0.383c0,0.167-0.03,0.315-0.092,0.445
			c-0.061,0.13-0.146,0.239-0.255,0.33c-0.109,0.09-0.24,0.158-0.394,0.205c-0.153,0.046-0.321,0.069-0.505,0.069
			c-0.27,0-0.528-0.046-0.774-0.138c-0.247-0.091-0.476-0.232-0.686-0.422l0.37-0.44c0.17,0.146,0.342,0.26,0.516,0.338
			c0.173,0.078,0.369,0.117,0.59,0.117c0.189,0,0.341-0.04,0.452-0.12s0.168-0.188,0.168-0.325c0-0.063-0.012-0.119-0.033-0.17
			c-0.021-0.05-0.062-0.096-0.12-0.137c-0.059-0.042-0.139-0.081-0.24-0.118c-0.103-0.036-0.235-0.075-0.398-0.115
			c-0.188-0.043-0.354-0.091-0.499-0.145s-0.268-0.12-0.366-0.2s-0.174-0.177-0.226-0.29s-0.077-0.251-0.077-0.415
			c0-0.153,0.029-0.292,0.089-0.417s0.142-0.232,0.245-0.322c0.104-0.091,0.229-0.159,0.376-0.208
			c0.146-0.048,0.307-0.072,0.479-0.072c0.257,0,0.487,0.037,0.692,0.112s0.397,0.185,0.578,0.327l-0.33,0.466
			c-0.16-0.117-0.318-0.206-0.476-0.268c-0.156-0.063-0.314-0.093-0.475-0.093c-0.18,0-0.32,0.041-0.42,0.122
			c-0.101,0.082-0.15,0.182-0.15,0.298C124.113,58.161,124.125,58.221,124.148,58.271z"/>
		<path d="M133.554,60.676h-0.62v-2.93h-1.109v-0.57h2.84v0.57h-1.11V60.676z"/>
		<path d="M150.544,59.613c-0.091,0.215-0.218,0.4-0.383,0.558c-0.165,0.156-0.362,0.28-0.59,0.37
			c-0.229,0.09-0.479,0.135-0.753,0.135h-1.305v-3.5h1.305c0.273,0,0.524,0.044,0.753,0.133c0.228,0.088,0.425,0.211,0.59,0.367
			s0.292,0.342,0.383,0.555c0.09,0.214,0.135,0.443,0.135,0.69S150.634,59.398,150.544,59.613z M149.945,58.451
			c-0.058-0.146-0.14-0.271-0.245-0.379s-0.233-0.19-0.384-0.251s-0.317-0.091-0.501-0.091h-0.692v2.391h0.692
			c0.184,0,0.351-0.029,0.501-0.088s0.278-0.141,0.384-0.246s0.188-0.231,0.245-0.377c0.059-0.146,0.088-0.306,0.088-0.479
			S150.004,58.597,149.945,58.451z"/>
		<path d="M157.419,57.176v3.5h-0.609v-3.5H157.419z"/>
		<path d="M166.541,60.4c-0.104,0.067-0.218,0.125-0.34,0.176c-0.122,0.05-0.252,0.089-0.393,0.117
			c-0.14,0.028-0.286,0.042-0.439,0.042c-0.273,0-0.522-0.046-0.745-0.137c-0.224-0.092-0.414-0.219-0.572-0.38
			c-0.159-0.162-0.281-0.353-0.368-0.573c-0.087-0.22-0.13-0.458-0.13-0.715c0-0.246,0.044-0.479,0.133-0.7
			c0.088-0.22,0.212-0.412,0.372-0.577s0.351-0.296,0.572-0.393s0.465-0.145,0.728-0.145c0.153,0,0.293,0.011,0.418,0.032
			s0.24,0.053,0.348,0.093c0.106,0.04,0.207,0.089,0.303,0.147c0.095,0.058,0.188,0.125,0.277,0.202l-0.391,0.465
			c-0.066-0.057-0.135-0.108-0.205-0.155c-0.069-0.046-0.143-0.085-0.22-0.117c-0.076-0.031-0.161-0.057-0.252-0.075
			c-0.092-0.018-0.193-0.027-0.303-0.027c-0.16,0-0.31,0.032-0.447,0.098c-0.139,0.065-0.259,0.154-0.36,0.269
			c-0.102,0.113-0.182,0.245-0.24,0.396s-0.087,0.311-0.087,0.48c0,0.181,0.028,0.348,0.085,0.501
			c0.057,0.154,0.137,0.287,0.242,0.398c0.104,0.112,0.229,0.2,0.375,0.264c0.145,0.063,0.308,0.095,0.487,0.095
			c0.167,0,0.322-0.024,0.468-0.073c0.145-0.048,0.271-0.112,0.377-0.193v-0.658h-0.895v-0.535h1.49v1.47
			C166.742,60.264,166.646,60.334,166.541,60.4z"/>
		<path d="M173.623,57.176v3.5h-0.609v-3.5H173.623z"/>
		<path d="M181.394,60.676h-0.62v-2.93h-1.109v-0.57h2.84v0.57h-1.11V60.676z"/>
		<path d="M191.403,60.676h-0.649l-0.355-0.845h-1.655l-0.359,0.845h-0.63l1.54-3.525h0.569L191.403,60.676z M189.568,57.886
			l-0.6,1.4h1.205L189.568,57.886z"/>
		<path d="M197.354,57.176h0.609v2.945h1.841v0.555h-2.45V57.176z"/>
		<path d="M215.248,58.871c-0.073,0.149-0.174,0.274-0.301,0.375c-0.127,0.1-0.275,0.176-0.446,0.228
			c-0.17,0.052-0.353,0.077-0.546,0.077h-0.697v1.125h-0.609v-3.5h1.38c0.203,0,0.388,0.027,0.553,0.082
			c0.165,0.056,0.305,0.135,0.42,0.238s0.203,0.227,0.265,0.37c0.062,0.143,0.093,0.305,0.093,0.484
			C215.358,58.548,215.321,58.721,215.248,58.871z M214.527,57.889c-0.137-0.105-0.321-0.158-0.552-0.158h-0.718v1.266h0.718
			c0.234,0,0.419-0.058,0.555-0.174c0.135-0.115,0.203-0.269,0.203-0.459C214.733,58.152,214.665,57.994,214.527,57.889z"/>
		<path d="M224.338,60.676h-0.649l-0.355-0.845h-1.655l-0.359,0.845h-0.63l1.54-3.525h0.569L224.338,60.676z M222.503,57.886
			l-0.6,1.4h1.205L222.503,57.886z"/>
		<path d="M232.534,60.676l-0.863-1.22h-0.772v1.22h-0.609v-3.5h1.56c0.2,0,0.381,0.025,0.543,0.077
			c0.161,0.052,0.298,0.125,0.41,0.221c0.111,0.095,0.197,0.211,0.257,0.35c0.061,0.139,0.09,0.293,0.09,0.463
			c0,0.146-0.021,0.277-0.063,0.393c-0.041,0.114-0.099,0.216-0.172,0.305c-0.073,0.088-0.161,0.163-0.263,0.225
			s-0.214,0.109-0.338,0.143l0.945,1.325H232.534z M232.333,57.879c-0.127-0.099-0.306-0.148-0.536-0.148h-0.898v1.181h0.903
			c0.221,0,0.396-0.054,0.526-0.161c0.131-0.107,0.195-0.251,0.195-0.432C232.523,58.124,232.46,57.978,232.333,57.879z"/>
		<path d="M240.718,60.676h-0.62v-2.93h-1.109v-0.57h2.84v0.57h-1.11V60.676z"/>
		<path d="M250.269,57.176h0.61v3.5h-0.514l-1.927-2.49v2.49h-0.609v-3.5h0.568l1.871,2.42V57.176z"/>
		<path d="M259.719,57.73h-1.98v0.9h1.756v0.555h-1.756v0.936h2.006v0.555h-2.615v-3.5h2.59V57.73z"/>
		<path d="M268.074,60.676l-0.863-1.22h-0.772v1.22h-0.609v-3.5h1.56c0.2,0,0.381,0.025,0.543,0.077
			c0.161,0.052,0.298,0.125,0.41,0.221c0.111,0.095,0.197,0.211,0.257,0.35c0.061,0.139,0.09,0.293,0.09,0.463
			c0,0.146-0.021,0.277-0.063,0.393c-0.041,0.114-0.099,0.216-0.172,0.305c-0.073,0.088-0.161,0.163-0.263,0.225
			s-0.214,0.109-0.338,0.143l0.945,1.325H268.074z M267.873,57.879c-0.127-0.099-0.306-0.148-0.536-0.148h-0.898v1.181h0.903
			c0.221,0,0.396-0.054,0.526-0.161c0.131-0.107,0.195-0.251,0.195-0.432C268.063,58.124,268,57.978,267.873,57.879z"/>
	</g>
</g>
</svg>
